<svg width="1299" height="1299" viewBox="0 0 1299 1299" fill="none" xmlns="http://www.w3.org/2000/svg">
<path d="M1177.22 202.969H121.781C99.3278 202.969 81.1875 221.109 81.1875 243.562V1055.44C81.1875 1077.89 99.3278 1096.03 121.781 1096.03H1177.22C1199.67 1096.03 1217.81 1077.89 1217.81 1055.44V243.562C1217.81 221.109 1199.67 202.969 1177.22 202.969ZM1126.48 343.525V1004.7H172.523V343.525L137.511 316.251L187.366 252.189L241.66 294.432H1057.47L1111.76 252.189L1161.62 316.251L1126.48 343.525V343.525ZM1057.47 294.305L649.5 611.443L241.533 294.305L187.239 252.062L137.384 316.124L172.397 343.398L605.735 680.326C618.197 690.008 633.529 695.263 649.31 695.263C665.091 695.263 680.422 690.008 692.885 680.326L1126.48 343.525L1161.49 316.251L1111.63 252.189L1057.47 294.305Z" fill="black"/>
</svg>
