<svg width="1084" height="1084" viewBox="0 0 1084 1084" fill="none" xmlns="http://www.w3.org/2000/svg">
<path d="M542 0C242.545 0 0 242.545 0 542C0 781.835 155.147 984.408 370.592 1056.22C397.692 1060.97 407.855 1044.71 407.855 1030.48C407.855 1017.61 407.178 974.923 407.178 929.53C271 954.598 235.77 896.332 224.93 865.845C218.832 850.262 192.41 802.16 169.375 789.287C150.405 779.125 123.305 754.057 168.698 753.38C211.38 752.702 241.868 792.675 252.03 808.935C300.81 890.912 378.723 867.878 409.888 853.65C414.63 818.42 428.857 794.707 444.44 781.157C323.845 767.607 197.83 720.86 197.83 513.545C197.83 454.602 218.833 405.822 253.385 367.882C247.965 354.332 228.995 298.777 258.805 224.252C258.805 224.252 304.198 210.025 407.855 279.808C451.215 267.613 497.285 261.515 543.355 261.515C589.425 261.515 635.495 267.613 678.855 279.808C782.513 209.348 827.905 224.252 827.905 224.252C857.715 298.777 838.745 354.332 833.325 367.882C867.878 405.822 888.88 453.925 888.88 513.545C888.88 721.537 762.188 767.607 641.593 781.157C661.24 798.095 678.178 830.615 678.178 881.428C678.178 953.92 677.5 1012.19 677.5 1030.48C677.5 1044.71 687.663 1061.64 714.763 1056.22C822.365 1019.91 915.868 950.759 982.106 858.512C1048.34 766.264 1083.98 655.565 1084 542C1084 242.545 841.455 0 542 0Z" fill="black"/>
</svg>
