<svg width="1000" height="1000" viewBox="0 0 1000 1000" fill="none" xmlns="http://www.w3.org/2000/svg">
<path d="M195.877 0C88.16 0 0 88.158 0 195.877V803.718C0 911.435 88.158 999.563 195.877 999.563H803.718C911.436 999.563 999.563 911.436 999.563 803.718V195.877C999.563 88.16 911.436 0 803.718 0H195.877ZM245.143 164.948C296.791 164.948 328.604 198.854 329.586 243.423C329.586 287.008 296.789 321.867 244.144 321.867H243.175C192.51 321.867 159.763 287.01 159.763 243.423C159.763 198.855 193.501 164.948 245.142 164.948H245.143ZM690.223 373.258C789.552 373.258 864.013 438.18 864.013 577.694V838.143H713.06V595.156C713.06 534.096 691.213 492.438 636.584 492.438C594.88 492.438 570.022 520.516 559.108 547.64C555.121 557.344 554.141 570.897 554.141 584.472V838.143H403.188C403.188 838.143 405.169 426.53 403.188 383.91H554.172V448.234C574.232 417.284 610.114 373.257 690.223 373.257V373.258ZM168.667 383.943H319.62V838.145H168.667V383.943V383.943Z" fill="black"/>
</svg>
