<svg width="410" height="425" viewBox="0 0 410 425" fill="none" xmlns="http://www.w3.org/2000/svg">
<path d="M116.44 45.697C109.454 46.0762 103.824 47.1846 98.1503 49.3432C95.3208 50.4079 90.6828 52.7269 88.1304 54.3313C77.4543 61.0258 69.3159 71.0894 65.0717 82.8011C64.2257 85.1201 61.9359 92.5146 60.4628 97.6048C50.6472 131.631 45.0757 168.838 43.8798 208.217C43.6901 214.488 43.6901 229.423 43.8798 235.593C44.6819 261.7 47.1759 285.269 51.6973 309.305C53.535 319.033 56.4811 332.101 58.1876 338.037C61.6734 350.099 68.7908 360.367 78.9128 367.893C85.6948 372.939 93.3956 376.323 101.928 377.986C106.041 378.788 111.466 379.152 115.463 378.89C120.99 378.525 131.958 377.052 140.87 375.462C181.036 368.301 218.141 355.481 251.788 337.133C273.097 325.509 291.313 312.922 308.888 297.652C326.405 282.454 341.34 266.105 354.481 247.757C357.529 243.512 359.06 241.033 360.592 237.912C364.53 229.861 366.382 221.854 366.367 212.899C366.367 204.556 364.792 197.147 361.394 189.563C359.76 185.902 358.2 183.277 354.699 178.289C341.806 159.926 327.498 143.927 310.055 128.379C283.014 104.285 250.898 84.5221 215.034 69.8934C207.26 66.7285 199.603 63.9427 190.385 60.9237C170.871 54.55 146.718 49.0224 126.285 46.2658C123.076 45.8282 118.715 45.5803 116.44 45.697Z" fill="#0B84F3" fill-opacity="0.2"/>
<path d="M92.3905 0.603638C83.5124 1.08554 76.358 2.49417 69.1481 5.2373C65.5523 6.59033 59.6583 9.53735 56.4148 11.5762C42.8474 20.0836 32.5051 32.8724 27.1115 47.7558C26.0365 50.7028 23.1266 60.0998 21.2546 66.5684C8.78078 109.81 1.70055 157.092 0.180713 207.135C-0.0602375 215.105 -0.0602375 234.084 0.180713 241.925C1.20012 275.102 4.36954 305.053 10.1153 335.599C12.4506 347.961 16.1946 364.568 18.3632 372.112C22.793 387.44 31.8379 400.488 44.7009 410.052C53.3195 416.465 63.1058 420.765 73.9485 422.878C79.1753 423.897 86.0702 424.361 91.1487 424.027C98.1733 423.564 112.111 421.692 123.436 419.672C174.48 410.571 221.632 394.279 264.392 370.963C291.471 356.19 314.621 340.195 336.955 320.789C359.215 301.476 378.194 280.699 394.894 257.382C398.768 251.989 400.714 248.838 402.66 244.872C407.665 234.64 410.018 224.465 410 213.085C410 202.483 407.998 193.067 403.68 183.429C401.604 178.777 399.62 175.441 395.172 169.102C378.788 145.767 360.605 125.434 338.438 105.676C304.074 75.0573 263.261 49.9428 217.685 31.3526C207.806 27.3306 198.075 23.7905 186.361 19.9538C161.562 11.8542 130.868 4.82956 104.901 1.32651C100.824 0.770477 95.2819 0.455353 92.3905 0.603638Z" fill="#0B84F3" fill-opacity="0.1"/>
<path d="M141.332 92.4681C136.307 92.7408 132.259 93.5379 128.179 95.0902C126.144 95.8559 122.809 97.5236 120.973 98.6774C113.295 103.492 107.443 110.729 104.391 119.151C103.782 120.819 102.136 126.137 101.076 129.797C94.0174 154.267 90.0107 181.023 89.1506 209.343C89.0143 213.853 89.0143 224.593 89.1506 229.03C89.7275 247.804 91.5211 264.754 94.7725 282.039C96.0941 289.035 98.2128 298.433 99.44 302.702C101.947 311.376 107.065 318.76 114.344 324.172C119.221 327.801 124.759 330.235 130.895 331.43C133.853 332.007 137.755 332.269 140.629 332.081C144.604 331.818 152.491 330.759 158.9 329.616C187.786 324.466 214.469 315.246 238.666 302.052C253.99 293.692 267.09 284.641 279.729 273.659C292.326 262.73 303.066 250.972 312.516 237.777C314.708 234.725 315.81 232.942 316.911 230.698C319.743 224.908 321.075 219.15 321.064 212.71C321.064 206.71 319.932 201.382 317.488 195.928C316.313 193.295 315.191 191.407 312.674 187.82C303.402 174.615 293.112 163.109 280.568 151.928C261.122 134.601 238.026 120.389 212.235 109.869C206.644 107.593 201.138 105.589 194.509 103.418C180.475 98.8347 163.106 94.8595 148.411 92.8771C146.104 92.5625 142.968 92.3842 141.332 92.4681Z" fill="#0B84F3"/>
</svg>
