<svg width="2000" height="800" viewBox="0 0 2000 800" fill="none" xmlns="http://www.w3.org/2000/svg">
<path d="M1266.38 359.572C1298.97 359.572 1326.27 386.765 1326.27 421.418C1326.27 456.071 1298.97 483.264 1266.38 483.264C1233.79 483.264 1206.48 456.071 1206.48 421.418C1206.48 386.765 1233.79 359.572 1266.38 359.572Z" stroke="white" stroke-width="44.8018"/>
<path d="M1619.92 483.264C1654.08 483.264 1681.77 455.575 1681.77 421.418C1681.77 387.261 1654.08 359.572 1619.92 359.572C1585.76 359.572 1558.07 387.261 1558.07 421.418C1558.07 455.575 1585.76 483.264 1619.92 483.264Z" stroke="white" stroke-width="44.8018"/>
<path d="M944.485 483.264V406.764C944.485 380.163 966.05 358.598 992.651 358.598C1019.25 358.598 1040.82 380.163 1040.82 406.764V483.264" stroke="white" stroke-width="44.8018" stroke-linecap="square"/>
<path d="M1041.44 483.264V406.764C1041.44 380.163 1063 358.598 1089.6 358.598C1116.21 358.598 1137.77 380.163 1137.77 406.764V483.264" stroke="white" stroke-width="44.8018" stroke-linecap="square"/>
<path d="M1745.07 483.264V415.087C1745.07 384.427 1769.93 359.572 1800.59 359.572C1831.25 359.572 1856.1 384.427 1856.1 415.087V483.264" stroke="white" stroke-width="44.8018" stroke-linecap="square"/>
<path d="M1393.48 317.692V483.264" stroke="white" stroke-width="44.8018" stroke-linecap="square"/>
<path d="M1491.85 359.572V483.264" stroke="white" stroke-width="44.8018" stroke-linecap="square"/>
<path d="M1393.48 359.572H1433.41" stroke="white" stroke-width="44.8018" stroke-linecap="round"/>
<path d="M1491.36 318.666C1503.46 318.666 1513.27 308.855 1513.27 296.752C1513.27 284.649 1503.46 274.838 1491.36 274.838C1479.26 274.838 1469.45 284.649 1469.45 296.752C1469.45 308.855 1479.26 318.666 1491.36 318.666Z" fill="white"/>
<mask id="mask0_1941_114" style="mask-type:alpha" maskUnits="userSpaceOnUse" x="730" y="337" width="168" height="168">
<path d="M813.975 485.212C849.476 485.212 878.256 456.432 878.256 420.931C878.256 385.43 849.476 356.65 813.975 356.65C778.474 356.65 749.694 385.43 749.694 420.931C749.694 456.432 778.474 485.212 813.975 485.212Z" fill="white" stroke="black" stroke-width="38.9581"/>
</mask>
<g mask="url(#mask0_1941_114)">
<path d="M746.772 403.4H888.969C901.341 403.4 911.37 413.429 911.37 425.801V435.54H746.772V403.4Z" fill="white"/>
</g>
<mask id="mask1_1941_114" style="mask-type:alpha" maskUnits="userSpaceOnUse" x="705" y="317" width="205" height="223">
<path d="M837.35 421.905H901.144L909.423 323.049L877.769 317.692L715.119 323.049L705.866 539.753H852.933L903.579 451.61H837.35V421.905Z" fill="black"/>
</mask>
<g mask="url(#mask1_1941_114)">
<path d="M813.975 359.572C847.74 359.572 875.334 387.139 875.334 421.418C875.334 455.697 847.74 483.264 813.975 483.264C780.21 483.264 752.617 455.697 752.617 421.418C752.617 387.139 780.21 359.572 813.975 359.572Z" stroke="white" stroke-width="44.8018"/>
</g>
<path d="M637.69 483.264V415.087C637.69 384.427 662.545 359.572 693.205 359.572" stroke="white" stroke-width="44.8018" stroke-linecap="square"/>
<path d="M253.407 236.954C246.603 237.324 241.119 238.403 235.594 240.506C232.838 241.543 228.321 243.801 225.835 245.364C215.437 251.884 207.51 261.685 203.377 273.092C202.553 275.351 200.323 282.552 198.888 287.51C189.328 320.65 183.902 356.887 182.737 395.241C182.552 401.349 182.552 415.895 182.737 421.904C183.518 447.331 185.947 470.286 190.351 493.696C192.14 503.171 195.01 515.899 196.672 521.68C200.067 533.428 206.999 543.428 216.857 550.758C223.463 555.673 230.963 558.968 239.273 560.588C243.279 561.369 248.563 561.724 252.455 561.468C257.839 561.113 268.521 559.679 277.2 558.13C316.321 551.156 352.459 538.669 385.23 520.799C405.983 509.478 423.725 497.219 440.842 482.346C457.902 467.545 472.448 451.621 485.247 433.751C488.216 429.617 489.708 427.202 491.199 424.162C495.034 416.321 496.838 408.523 496.824 399.801C496.824 391.676 495.29 384.459 491.98 377.073C490.389 373.507 488.869 370.95 485.46 366.092C472.903 348.208 458.968 332.625 441.979 317.483C415.643 294.016 384.363 274.768 349.433 260.521C341.862 257.438 334.404 254.725 325.426 251.784C306.42 245.577 282.896 240.193 262.995 237.508C259.87 237.082 255.623 236.841 253.407 236.954Z" fill="white" fill-opacity="0.3"/>
<path d="M229.984 193.036C221.337 193.505 214.369 194.877 207.347 197.549C203.845 198.866 198.104 201.737 194.945 203.722C181.731 212.008 171.658 224.464 166.405 238.96C165.358 241.83 162.524 250.982 160.701 257.282C148.552 299.397 141.656 345.447 140.176 394.187C139.941 401.95 139.941 420.435 140.176 428.071C141.169 460.383 144.256 489.555 149.852 519.305C152.126 531.345 155.773 547.52 157.885 554.867C162.199 569.796 171.009 582.504 183.537 591.819C191.931 598.065 201.462 602.253 212.022 604.311C217.113 605.304 223.828 605.755 228.774 605.43C235.616 604.979 249.191 603.155 260.221 601.188C309.936 592.324 355.859 576.457 397.505 553.748C423.879 539.36 446.426 523.782 468.178 504.881C489.858 486.071 508.343 465.835 524.608 443.126C528.381 437.873 530.276 434.804 532.172 430.941C537.046 420.976 539.338 411.066 539.32 399.982C539.32 389.656 537.371 380.486 533.165 371.099C531.143 366.568 529.211 363.319 524.879 357.145C508.921 334.418 491.212 314.615 469.622 295.372C436.154 265.55 396.404 241.09 352.014 222.984C342.393 219.066 332.916 215.618 321.507 211.882C297.353 203.993 267.46 197.151 242.169 193.74C238.198 193.198 232.8 192.891 229.984 193.036Z" fill="white" fill-opacity="0.15"/>
<path d="M277.65 282.507C272.757 282.773 268.814 283.549 264.84 285.061C262.858 285.807 259.61 287.431 257.822 288.555C250.344 293.244 244.644 300.292 241.671 308.495C241.079 310.119 239.475 315.299 238.443 318.864C231.568 342.696 227.666 368.756 226.828 396.337C226.696 400.73 226.696 411.191 226.828 415.512C227.39 433.797 229.137 450.306 232.304 467.141C233.591 473.954 235.655 483.107 236.85 487.265C239.291 495.713 244.276 502.905 251.366 508.176C256.116 511.71 261.51 514.08 267.486 515.245C270.367 515.807 274.167 516.062 276.966 515.878C280.837 515.623 288.519 514.591 294.761 513.478C322.894 508.462 348.882 499.483 372.449 486.632C387.374 478.49 400.133 469.674 412.443 458.978C424.711 448.334 435.172 436.882 444.376 424.031C446.511 421.059 447.584 419.322 448.656 417.136C451.414 411.497 452.712 405.889 452.701 399.617C452.701 393.773 451.598 388.584 449.218 383.272C448.074 380.708 446.981 378.869 444.529 375.375C435.499 362.514 425.477 351.308 413.26 340.418C394.32 323.542 371.826 309.701 346.706 299.454C341.262 297.238 335.898 295.287 329.442 293.172C315.774 288.708 298.857 284.836 284.546 282.906C282.298 282.599 279.244 282.425 277.65 282.507Z" fill="white"/>
</svg>
