<svg width="425" height="425" viewBox="0 0 425 425" baseProfile="tiny-ps" version="1.2" fill="none" xmlns="http://www.w3.org/2000/svg">
<title>Remotion</title>
<path d="M123.44 46.1303C116.454 46.5095 110.824 47.6179 105.15 49.7765C102.321 50.8412 97.6826 53.1602 95.1302 54.7646C84.4541 61.4591 76.3157 71.5227 72.0715 83.2344C71.2255 85.5534 68.9357 92.9479 67.4626 98.0381C57.647 132.064 52.0755 169.271 50.8796 208.65C50.6899 214.921 50.6899 229.856 50.8796 236.026C51.6817 262.133 54.1757 285.702 58.6971 309.738C60.5348 319.466 63.4809 332.534 65.1874 338.47C68.6732 350.532 75.7906 360.8 85.9126 368.326C92.6946 373.372 100.395 376.756 108.928 378.419C113.041 379.221 118.466 379.585 122.463 379.323C127.99 378.958 138.958 377.485 147.87 375.895C188.036 368.734 225.141 355.914 258.788 337.566C280.097 325.942 298.313 313.355 315.888 298.085C333.405 282.887 348.34 266.538 361.481 248.19C364.529 243.945 366.06 241.466 367.592 238.345C371.53 230.294 373.382 222.287 373.367 213.332C373.367 204.989 371.792 197.58 368.394 189.996C366.76 186.335 365.2 183.71 361.699 178.722C348.806 160.359 334.498 144.36 317.055 128.812C290.014 104.718 257.898 84.9554 222.034 70.3267C214.26 67.1618 206.603 64.376 197.385 61.357C177.871 54.9833 153.718 49.4557 133.285 46.6991C130.076 46.2615 125.715 46.0136 123.44 46.1303Z" fill="#0B84F3" fill-opacity="0.2"/>
<path d="M99.3905 1.03656C90.5124 1.51846 83.358 2.92709 76.1481 5.67022C72.5523 7.02325 66.6583 9.97027 63.4148 12.0091C49.8474 20.5165 39.5051 33.3053 34.1115 48.1887C33.0365 51.1357 30.1266 60.5327 28.2546 67.0013C15.7808 110.243 8.70055 157.525 7.18071 207.568C6.93976 215.538 6.93976 234.517 7.18071 242.358C8.20012 275.535 11.3695 305.486 17.1153 336.032C19.4506 348.394 23.1946 365.001 25.3632 372.545C29.793 387.873 38.8379 400.921 51.7009 410.485C60.3195 416.898 70.1058 421.198 80.9485 423.311C86.1753 424.33 93.0702 424.794 98.1487 424.46C105.173 423.997 119.111 422.125 130.436 420.105C181.48 411.004 228.632 394.712 271.392 371.396C298.471 356.623 321.621 340.628 343.955 321.222C366.215 301.909 385.194 281.132 401.894 257.815C405.768 252.422 407.714 249.271 409.66 245.305C414.665 235.073 417.018 224.898 417 213.518C417 202.916 414.998 193.5 410.68 183.862C408.604 179.21 406.62 175.874 402.172 169.535C385.788 146.2 367.605 125.867 345.438 106.109C311.074 75.4902 270.261 50.3757 224.685 31.7855C214.806 27.7635 205.075 24.2234 193.361 20.3867C168.562 12.2871 137.868 5.26248 111.901 1.75943C107.824 1.20339 102.282 0.88827 99.3905 1.03656Z" fill="#0B84F3" fill-opacity="0.1"/>
<path d="M148.332 92.9015C143.307 93.1742 139.259 93.9713 135.179 95.5236C133.144 96.2893 129.809 97.957 127.973 99.1108C120.295 103.925 114.443 111.162 111.391 119.584C110.782 121.252 109.136 126.57 108.076 130.23C101.018 154.7 97.0112 181.456 96.1511 209.776C96.0148 214.286 96.0148 225.026 96.1511 229.463C96.728 248.237 98.5216 265.187 101.773 282.472C103.095 289.468 105.213 298.866 106.44 303.135C108.947 311.809 114.065 319.193 121.344 324.605C126.221 328.234 131.759 330.668 137.895 331.863C140.853 332.44 144.755 332.702 147.629 332.514C151.604 332.251 159.491 331.192 165.9 330.049C194.786 324.899 221.469 315.679 245.666 302.485C260.99 294.125 274.09 285.074 286.729 274.092C299.326 263.163 310.066 251.405 319.516 238.21C321.708 235.158 322.81 233.375 323.911 231.131C326.743 225.341 328.075 219.583 328.064 213.143C328.064 207.143 326.932 201.815 324.488 196.361C323.313 193.728 322.191 191.84 319.674 188.253C310.402 175.048 300.112 163.542 287.568 152.361C268.122 135.034 245.026 120.822 219.235 110.302C213.644 108.026 208.138 106.022 201.509 103.851C187.475 99.2681 170.106 95.2929 155.411 93.3105C153.104 92.9959 149.968 92.8176 148.332 92.9015Z" fill="#0B84F3"/>
</svg>
