<svg width="258" height="56" viewBox="0 0 258 56" fill="none" xmlns="http://www.w3.org/2000/svg">
<path d="M25.7361 40.8372H17.6837C15.1575 40.8372 12.7891 41.4688 11.0523 43.3634L0.473671 55.521C8.21029 55.9947 16.2627 55.9947 21.9467 55.9947C50.8407 55.9947 55.4195 38.6267 55.5774 29.9428C53.0511 33.1006 45.4724 40.8372 25.7361 40.8372ZM51.9459 12.8906C51.788 14.3116 50.9985 20.4694 33.6306 20.4694C19.5784 20.4694 13.8943 20.4694 0 20.1536L10.4208 32.1532C12.4733 34.5216 15.3154 35.311 18.4732 35.4689C21.9467 35.4689 26.6834 35.6268 27.315 35.6268C46.7355 35.6268 54.9458 26.6271 54.9458 20.1536C55.1037 16.68 53.9985 14.4695 51.9459 12.8906Z" fill="white"/>
<path d="M106.707 15.225H118.082V42.35C118.082 45.325 117.382 47.95 116.157 50.05C114.932 52.15 113.357 53.55 111.257 54.6C109.157 55.65 106.882 56 104.257 56C101.632 56 99.357 55.475 97.257 54.6C95.157 53.55 93.582 52.15 92.357 50.05C92.182 49.875 92.182 49.525 92.007 49.35C91.832 49.525 91.832 49.875 91.657 50.05C90.432 52.15 88.857 53.55 86.757 54.6C84.657 55.65 82.382 56 79.757 56C77.132 56 74.857 55.475 72.932 54.6C70.832 53.55 69.257 52.15 68.032 50.05C66.807 47.95 66.282 45.5 66.282 42.35L65.932 15.225H77.307V40.25C77.307 42 77.657 43.225 78.532 43.925C79.407 44.625 80.457 44.975 81.682 44.975C82.907 44.975 84.132 44.625 85.007 43.925C85.882 43.225 86.407 42 86.407 40.25V15.225H90.607H93.582H97.782V40.25C97.782 42 98.307 43.225 99.182 43.925C100.057 44.625 101.282 44.975 102.507 44.975C103.732 44.975 104.782 44.625 105.657 43.925C106.357 43.225 106.707 42 106.707 40.25V15.225ZM134.532 0.7C133.657 0.175 132.607 0 131.382 0C130.157 0 129.107 0.175 128.232 0.7C127.357 1.225 126.482 1.925 125.957 2.8C125.432 3.675 125.082 4.725 125.082 5.775C125.082 7.525 125.607 8.925 126.832 9.975C128.057 11.025 129.632 11.55 131.382 11.55C132.607 11.55 133.657 11.375 134.532 10.85C135.582 10.325 136.282 9.625 136.807 8.75C137.332 7.875 137.682 6.825 137.682 5.6C137.682 4.375 137.332 3.5 136.807 2.625C136.282 1.925 135.582 1.225 134.532 0.7ZM125.607 55.125H136.982V15.75H125.607V55.125ZM163.407 36.75C162.882 35.875 162.007 35 161.307 34.125C160.607 33.425 159.732 32.725 158.857 31.85C158.157 31.15 157.632 30.625 157.107 30.1C156.757 29.575 156.582 29.05 156.582 28.35C156.582 27.3 157.107 26.6 158.332 26.075C159.557 25.55 160.957 25.375 162.707 25.375H164.457L163.407 14.875C162.357 14.7 161.307 14.7 160.257 14.7C157.457 14.7 154.832 15.05 152.207 15.75C149.757 16.45 147.657 17.675 146.082 19.425C144.507 21.175 143.632 23.45 143.632 26.425C143.632 28.525 143.982 30.275 144.857 31.85C145.732 33.425 146.782 34.825 148.007 36.225C148.707 36.925 149.407 37.625 150.107 38.325C150.807 39.025 151.507 39.725 151.857 40.25C152.207 40.775 152.382 41.3 152.382 42C152.382 43.05 151.857 43.925 150.632 44.45C149.407 44.975 147.832 45.325 145.557 45.325C144.682 45.325 143.982 45.325 143.632 45.15L145.032 55.65C146.082 56 146.957 56 148.182 56C151.507 56 154.307 55.475 156.932 54.6C159.557 53.725 161.657 52.325 163.232 50.4C164.807 48.475 165.507 46.2 165.507 43.225C165.507 42 165.332 40.775 164.982 39.55C164.457 38.5 164.107 37.625 163.407 36.75ZM184.232 43.925C183.357 43.05 183.007 41.825 183.007 40.25V25.725H191.232V15.75H183.007V5.775L171.632 9.1V43.925C171.632 47.95 172.507 51.1 174.082 53.025C175.832 54.95 178.282 56 181.607 56C183.357 56 184.932 55.825 186.507 55.65C188.082 55.475 189.307 55.125 190.532 54.6L192.632 44.8C191.407 45.15 189.832 45.325 188.082 45.325C186.157 45.15 184.932 44.8 184.232 43.925ZM198.407 55.125H209.782V15.75H198.407V55.125ZM207.332 0.7C206.457 0.175 205.407 0 204.182 0C202.957 0 201.907 0.175 201.032 0.7C200.157 1.225 199.282 1.925 198.757 2.8C198.232 3.675 197.882 4.725 197.882 5.775C197.882 7.525 198.407 8.925 199.632 9.975C200.857 11.025 202.432 11.55 204.182 11.55C205.407 11.55 206.457 11.375 207.332 10.85C208.382 10.325 209.082 9.625 209.607 8.75C210.132 7.875 210.482 6.825 210.482 5.6C210.482 4.375 210.132 3.5 209.607 2.625C209.082 1.925 208.382 1.225 207.332 0.7ZM257.907 15.75V55.125H246.532V48.65C245.307 50.575 243.907 52.15 242.157 53.375C239.707 55.125 236.732 56 233.407 56C230.082 56 227.107 55.125 224.657 53.375C222.207 51.625 220.282 49.175 218.882 46.025C217.482 42.875 216.782 39.375 216.782 35.35C216.782 31.325 217.482 27.825 218.882 24.85C220.282 21.7 222.207 19.25 224.657 17.5C227.107 15.75 230.082 14.875 233.407 14.875C236.732 14.875 239.707 15.75 242.157 17.5C243.907 18.725 245.307 20.3 246.532 22.225V15.75H257.907ZM245.657 40.25C246.532 38.85 246.882 37.1 246.882 35.35C246.882 33.6 246.532 31.85 245.657 30.45C244.957 29.05 243.907 27.825 242.507 27.125C241.107 26.25 239.707 25.9 237.957 25.9C236.382 25.9 234.807 26.25 233.407 27.125C232.007 28 230.957 29.05 230.257 30.45C229.382 31.85 229.032 33.425 229.032 35.35C229.032 37.1 229.382 38.85 230.257 40.25C231.132 41.65 232.182 42.875 233.407 43.575C234.807 44.45 236.207 44.8 237.957 44.8C239.532 44.8 241.107 44.45 242.507 43.575C243.907 42.875 244.957 41.65 245.657 40.25Z" fill="#A3A2A2"/>
</svg>
