<svg width="74" height="76" viewBox="0 0 74 76" fill="none" xmlns="http://www.w3.org/2000/svg">
<g opacity="0.76">
<path d="M24.7512 58.9891C24.7512 59.2859 24.4081 59.5234 23.9754 59.5234C23.4831 59.568 23.1399 59.3305 23.1399 58.9891C23.1399 58.6922 23.4831 58.4547 23.9157 58.4547C24.3633 58.4102 24.7512 58.6477 24.7512 58.9891ZM20.1113 58.3211C20.0069 58.618 20.3052 58.9594 20.7528 59.0484C21.1407 59.1969 21.5883 59.0484 21.6778 58.7516C21.7673 58.4547 21.4839 58.1133 21.0363 57.9797C20.6484 57.8758 20.2157 58.0242 20.1113 58.3211ZM26.7056 58.0688C26.273 58.1727 25.9746 58.4547 26.0194 58.7961C26.0641 59.093 26.452 59.2859 26.8996 59.182C27.3323 59.0781 27.6306 58.7961 27.5859 58.4992C27.5411 58.2172 27.1383 58.0242 26.7056 58.0688ZM36.5226 1.1875C15.8294 1.1875 0 16.818 0 37.4062C0 53.868 10.4137 67.9547 25.2883 72.9125C27.198 73.2539 27.8694 72.0813 27.8694 71.1164C27.8694 70.1961 27.8246 65.1195 27.8246 62.0023C27.8246 62.0023 17.3811 64.2289 15.1879 57.5789C15.1879 57.5789 13.4871 53.2594 11.0403 52.1461C11.0403 52.1461 7.62379 49.8156 11.279 49.8602C11.279 49.8602 14.994 50.157 17.0379 53.6898C20.3052 59.4195 25.7806 57.7719 27.9141 56.7922C28.2573 54.4172 29.227 52.7695 30.3012 51.7898C21.9613 50.8695 13.5468 49.6672 13.5468 35.3875C13.5468 31.3055 14.6806 29.257 17.0677 26.6445C16.6798 25.6797 15.4117 21.7016 17.4556 16.5656C20.5738 15.6008 27.75 20.5734 27.75 20.5734C30.7339 19.7422 33.9415 19.3117 37.1194 19.3117C40.2972 19.3117 43.5048 19.7422 46.4887 20.5734C46.4887 20.5734 53.6649 15.5859 56.7831 16.5656C58.827 21.7164 57.5589 25.6797 57.171 26.6445C59.5581 29.2719 61.0202 31.3203 61.0202 35.3875C61.0202 49.7117 52.2327 50.8547 43.8927 51.7898C45.2653 52.9625 46.429 55.1891 46.429 58.6773C46.429 63.6797 46.3843 69.8695 46.3843 71.0867C46.3843 72.0516 47.0706 73.2242 48.9653 72.8828C63.8847 67.9547 74 53.868 74 37.4062C74 16.818 57.2157 1.1875 36.5226 1.1875ZM14.5016 52.3836C14.3077 52.532 14.3524 52.8734 14.606 53.1555C14.8448 53.393 15.1879 53.4969 15.3819 53.3039C15.5758 53.1555 15.531 52.8141 15.2774 52.532C15.0387 52.2945 14.6956 52.1906 14.5016 52.3836ZM12.8903 51.1812C12.7859 51.3742 12.9351 51.6117 13.2335 51.7602C13.4722 51.9086 13.7706 51.8641 13.875 51.6562C13.9794 51.4633 13.8302 51.2258 13.5319 51.0773C13.2335 50.9883 12.9948 51.0328 12.8903 51.1812ZM17.7242 56.4656C17.4855 56.6586 17.575 57.1039 17.9181 57.3859C18.2613 57.7273 18.694 57.7719 18.8879 57.5344C19.0819 57.3414 18.9923 56.8961 18.694 56.6141C18.3657 56.2727 17.9181 56.2281 17.7242 56.4656ZM16.0234 54.2836C15.7847 54.432 15.7847 54.818 16.0234 55.1594C16.2621 55.5008 16.6649 55.6492 16.8589 55.5008C17.0976 55.3078 17.0976 54.9219 16.8589 54.5805C16.65 54.2391 16.2621 54.0906 16.0234 54.2836Z" fill="black"/>
</g>
</svg>
