<svg width="366" height="62" viewBox="0 0 366 62" fill="none" xmlns="http://www.w3.org/2000/svg">
<g clip-path="url(#clip0_10_7)">
<path fill-rule="evenodd" clip-rule="evenodd" d="M100.222 28.0781V42.4059H105.949V28.1481C105.949 24.2978 108.07 21.7076 111.628 21.7076C115.588 21.7076 117.144 24.3911 117.144 28.0081V42.4059H122.894V26.6547C122.894 20.8675 120.042 16.3172 113.491 16.3172C109.555 16.3172 107.033 17.764 104.535 20.4941C103.074 17.9507 100.504 16.3172 96.5931 16.3172C94.5426 16.3172 91.3606 17.0639 88.886 20.3308V16.9006H83.2772V42.4059H89.0279V28.1948C89.0279 24.3445 91.149 21.7076 94.7076 21.7076C98.6665 21.7076 100.222 24.4612 100.222 28.0781ZM134.314 31.1816V16.9006H128.563V32.5818C128.563 38.3689 131.769 42.9426 138.225 42.9426C140.253 42.9426 143.623 42.2658 146.097 38.9756V42.4059H151.707V16.9006H145.956V31.0884C145.956 34.9387 143.647 37.5522 139.994 37.5522C136.034 37.5522 134.314 34.7986 134.314 31.1816ZM166.354 42.8492C172.765 42.8492 175.758 38.8357 175.758 34.8919C175.758 31.2517 173.166 28.2181 168.453 27.2147L164.917 26.468C163.479 26.1646 162.325 25.3245 162.325 23.8311C162.325 22.1043 164.046 20.9376 165.86 20.9376C168.9 20.9376 170.149 22.851 170.526 24.5078L175.381 23.1544C174.933 20.7041 172.624 16.3405 165.86 16.3405C160.604 16.3405 156.763 20.0975 156.763 24.3211C156.763 27.6581 158.884 30.5517 163.574 31.6484L166.873 32.4185C169.042 32.9318 169.937 33.8419 169.937 35.2187C169.937 36.9922 168.64 38.2055 166.261 38.2055C163.314 38.2055 161.571 36.3154 161.099 34.1452L156.174 35.4287C156.503 38.2756 159.356 42.8492 166.354 42.8492ZM179.495 8.61655C179.495 6.53972 181.192 4.83625 183.265 4.83625C185.364 4.83625 187.06 6.53972 187.06 8.61655C187.06 10.6934 185.364 12.3502 183.265 12.3502C181.192 12.3502 179.495 10.6934 179.495 8.61655ZM180.414 42.4059V16.9006H186.164V42.4059H180.414ZM195.793 42.4059L202.275 33.5152L208.779 42.4059H215.378L205.621 29.4082L215.071 16.9006H208.59L202.345 25.3479L196.171 16.9006H189.595L199.022 29.5015L189.241 42.4059H195.793ZM235.424 28.0781V42.4059H241.15V28.1481C241.15 24.2978 243.271 21.7076 246.83 21.7076C250.789 21.7076 252.344 24.3911 252.344 28.0081V42.4059H258.095V26.6547C258.095 20.8675 255.243 16.3172 248.691 16.3172C244.756 16.3172 242.234 17.764 239.736 20.4941C238.275 17.9507 235.706 16.3172 231.794 16.3172C229.744 16.3172 226.562 17.0639 224.087 20.3308V16.9006H218.478V42.4059H224.228V28.1948C224.228 24.3445 226.349 21.7076 229.909 21.7076C233.868 21.7076 235.424 24.4612 235.424 28.0781ZM262.303 29.6182C262.303 36.4788 267.535 42.8026 274.982 42.8026C277.033 42.8026 281.416 41.7992 283.537 38.5322V42.4059H289.217V16.9006H283.537V20.6108C281.416 17.4606 277.387 16.3872 275.124 16.3872C267.064 16.3872 262.303 23.1777 262.303 29.6182ZM283.561 29.6182C283.561 33.9819 280.497 37.6455 275.831 37.6455C271.188 37.6455 268.101 34.0052 268.101 29.6182C268.101 25.1846 271.165 21.5443 275.831 21.5443C280.497 21.5443 283.561 25.1846 283.561 29.6182ZM310.017 22.011V16.9006H303.465V8.9899H297.738V16.9006H292.742V22.011H297.738V34.4953C297.738 40.7025 300.59 42.6392 305.657 42.6392C306.364 42.6392 308.202 42.5926 309.782 42.1258V37.2955C308.674 37.4355 307.967 37.4821 307.448 37.4821C304.573 37.4821 303.465 36.3854 303.465 34.1919V22.011H310.017ZM325.82 42.8492C332.843 42.8492 336.826 38.3689 337.981 34.4953L332.725 32.8151C331.971 34.7753 330.345 37.6688 325.938 37.6688C321.554 37.6688 318.302 34.2619 318.302 29.5015C318.302 24.6712 321.695 21.5209 325.891 21.5209C330.157 21.5209 332.042 24.2978 332.631 26.2813L337.839 24.6012C336.755 20.2841 332.301 16.3638 325.915 16.3638C318.231 16.3638 312.411 22.3143 312.411 29.5949C312.411 37.1088 318.231 42.8492 325.82 42.8492ZM359.488 28.1248V42.4059H365.238V26.7013C365.238 20.8908 362.127 16.3638 355.576 16.3638C353.548 16.3638 350.319 17.0172 347.846 20.1208V3.48282H342.094V42.4059H347.846V28.1948C347.846 24.3445 350.154 21.7542 353.807 21.7542C357.767 21.7542 359.488 24.4845 359.488 28.1248Z" fill="#FCFCFC"/>
<path fill-rule="evenodd" clip-rule="evenodd" d="M54.7056 1.57316C54.7056 1.57316 40.3274 12.5982 33.1383 18.1108C33.0764 18.1582 32.9526 18.2532 32.9526 18.2532L10.996 1.71814C9.78569 0.784941 8.37698 0.365679 6.99967 0.365542C3.79978 0.365128 0.766789 2.62724 0.766789 5.96203V18.5017L0.762207 55.7782C0.762207 59.1127 3.79548 61.3748 6.99508 61.3748C8.37267 61.3748 9.78093 60.9555 10.9914 60.022L32.9526 43.3421C43.88 51.7683 54.701 60.022 54.701 60.022C55.9114 60.9553 57.3202 61.3748 58.6973 61.3748C61.8974 61.3748 65.143 59.113 65.143 55.7782V18.5017V5.70875C65.143 2.37424 61.9015 0.220551 58.7019 0.220551C57.3243 0.220551 55.9161 0.639812 54.7056 1.57316Z" fill="#6D6D76"/>
<path opacity="0.6" fill-rule="evenodd" clip-rule="evenodd" d="M16.839 30.8221L32.9525 43.3422L48.9631 30.8187L32.9525 18.2532L16.839 30.8221Z" fill="#A3A3A3"/>
<path opacity="0.6" fill-rule="evenodd" clip-rule="evenodd" d="M0.770065 18.4572V43.1871L16.839 30.8221L0.770065 18.4572Z" fill="#DEDEDE"/>
<path opacity="0.6" fill-rule="evenodd" clip-rule="evenodd" d="M48.9632 30.8187L65.143 43.3422V18.2532L48.9632 30.8187Z" fill="#A3A3A3"/>
<path fill-rule="evenodd" clip-rule="evenodd" d="M54.4128 1.7886L32.9526 18.2532L48.9631 30.8185L65.143 18.2532V5.70874C65.143 0.941957 59.0115 -2.13155 54.4128 1.7886Z" fill="white"/>
<path fill-rule="evenodd" clip-rule="evenodd" d="M11.0179 1.61996C6.99032 -1.47931 0.77449 1.09422 0.77449 5.86101V18.4571L16.8389 30.822L32.9525 18.2532L11.0179 1.61996Z" fill="white"/>
</g>
<defs>
<clipPath id="clip0_10_7">
<rect width="366" height="62" fill="white"/>
</clipPath>
</defs>
</svg>
