<svg width="220" height="110" viewBox="0 0 220 110" fill="none" xmlns="http://www.w3.org/2000/svg">
<path d="M114.999 11.1447C113.658 11.6626 113.303 12.1989 113.289 13.2302V69.6212C113.317 70.7075 114.146 71.6149 115.207 71.7203C115.253 71.7226 164.135 71.7478 164.455 71.7478C174.268 71.7478 182.22 63.7958 182.22 53.9806C182.22 44.1654 174.268 36.2155 164.455 36.2155C162.097 36.2144 159.761 36.6826 157.585 37.5929C156.171 21.5833 142.746 9.02269 126.366 9.02269C122.479 9.0288 118.627 9.74963 115.001 11.1493M107.704 15.1368L106.902 55.1584L107.704 69.683C107.732 70.7441 108.598 71.6172 109.662 71.6172C110.178 71.613 110.672 71.4063 111.038 71.0416C111.403 70.6769 111.611 70.1833 111.616 69.667V69.6808L112.487 55.1562L111.616 15.1299C111.589 14.0597 110.723 13.1821 109.662 13.1821C108.6 13.1821 107.714 14.062 107.704 15.1368ZM101.762 18.4597L101.075 55.1425C101.075 55.1654 101.762 69.8916 101.762 69.8916C101.79 70.8885 102.601 71.709 103.596 71.709C104.079 71.7037 104.541 71.5101 104.883 71.1695C105.226 70.8288 105.423 70.3679 105.431 69.8847L106.203 55.1562L105.431 18.4574C105.404 17.4536 104.59 16.6355 103.598 16.6355C103.115 16.6414 102.654 16.8353 102.311 17.1758C101.969 17.5164 101.773 17.9769 101.765 18.4597M83.995 22.3051L83.0852 55.1447L83.9972 70.2239C84.0201 71.0306 84.6846 71.6677 85.4591 71.6677C86.2337 71.6677 86.8962 71.026 86.9214 70.2171V70.2101L87.9458 55.1425L86.9214 22.3029C86.8939 21.4847 86.2521 20.8476 85.4591 20.8476C84.6662 20.8476 84.0156 21.4847 83.9927 22.3029M89.8685 23.1439L89.0343 55.147L89.8707 70.0772C89.8982 70.9549 90.5857 71.6494 91.4588 71.6494C92.3319 71.6494 93.0172 70.9527 93.0447 70.0681V70.0772L93.9614 55.1447L93.0447 23.1415C93.0172 22.2547 92.3251 21.5603 91.4588 21.5603C90.5926 21.5603 89.8891 22.2569 89.8685 23.1415M78.1648 23.3708L77.1795 55.1401L78.1648 70.3109C78.1725 70.6624 78.3168 70.997 78.5671 71.2439C78.8173 71.4907 79.1541 71.6304 79.5056 71.6333C80.2275 71.6333 80.8164 71.0534 80.8462 70.3041L81.9553 55.1401L80.8462 23.3684C80.8164 22.6236 80.2275 22.0393 79.5056 22.0393C79.1529 22.0423 78.8153 22.1828 78.5648 22.4311C78.3144 22.6794 78.1708 23.0158 78.1648 23.3684M95.7923 24.3127L95.027 55.1447L95.7923 69.9832C95.8198 70.9297 96.5648 71.6745 97.5044 71.6745C98.444 71.6745 99.191 70.9297 99.2117 69.9741V69.9856L100.069 55.147L99.2117 24.3103C99.2075 23.8592 99.0261 23.4279 98.7067 23.1094C98.3873 22.7908 97.9555 22.6106 97.5044 22.6076C96.5877 22.6076 95.8084 23.3571 95.7923 24.3127ZM72.3808 25.8114C72.3808 25.8137 71.3264 55.1333 71.3264 55.1333L72.3808 70.4599C72.3902 70.7782 72.5218 71.0806 72.7484 71.3043C72.975 71.528 73.2793 71.6555 73.5977 71.6607C74.2462 71.6607 74.78 71.1336 74.8121 70.4553L76.0038 55.1333L74.8121 25.8114C74.7777 25.1354 74.2439 24.606 73.5977 24.606C73.2786 24.6112 72.9738 24.7394 72.747 24.9641C72.5202 25.1887 72.389 25.4923 72.3808 25.8114ZM66.6446 31.2656L65.5148 55.1333L66.6446 70.5561C66.6744 71.1588 67.1535 71.6333 67.7379 71.6333C68.0235 71.6265 68.2958 71.511 68.4993 71.3105C68.7029 71.1099 68.8221 70.8394 68.8331 70.5539V70.5585L70.1121 55.1355L68.8331 31.2678C68.7964 30.6628 68.3154 30.1862 67.7379 30.1862C67.1604 30.1862 66.6744 30.6606 66.6446 31.2656ZM55.31 39.3162L54.036 55.1286L55.31 70.4255C55.3466 70.8999 55.709 71.2551 56.1581 71.2551C56.6073 71.2551 56.9648 70.8999 57.006 70.4255L58.4498 55.1286L57.006 39.3116C56.9648 38.8418 56.6027 38.482 56.1581 38.482C55.7136 38.482 55.3443 38.8396 55.31 39.3162ZM49.7114 39.7356C49.7114 39.7378 48.3594 55.1264 48.3594 55.1264L49.7114 69.9534C49.7527 70.3659 50.0553 70.641 50.4357 70.641C50.8161 70.641 51.1142 70.3431 51.1577 69.9306L52.6885 55.1035L51.1599 39.7126C51.1141 39.3001 50.8092 39.0022 50.4357 39.0022C50.0621 39.0022 49.7481 39.3001 49.7114 39.7126M60.9544 40.4391L59.7537 55.1057L60.9544 70.5287C60.991 71.0718 61.4037 71.4866 61.924 71.4866C62.4442 71.4866 62.8543 71.0741 62.8933 70.5309L64.2567 55.1081L62.8933 40.4323C62.852 39.8937 62.4396 39.4835 61.924 39.4835C61.4083 39.4835 60.9887 39.8914 60.9544 40.4391ZM44.161 42.1349C44.161 42.1372 42.7402 55.1057 42.7402 55.1057L44.161 67.7924C44.2023 68.1316 44.4591 68.3745 44.7639 68.3745C45.0687 68.3745 45.3139 68.1362 45.3597 67.7948L46.973 55.1057L45.3597 42.1349C45.307 41.7912 45.0619 41.5528 44.7594 41.5528C44.4569 41.5528 44.1978 41.798 44.1565 42.1349M38.84 47.0849L37.7856 55.1057L38.84 62.989C38.8813 63.3213 39.1194 63.5551 39.4196 63.5551C39.7198 63.5551 39.9467 63.3214 39.9925 62.9914L41.2438 55.1035L39.9925 47.0826C39.9467 46.7526 39.7084 46.5212 39.4196 46.5212C39.1309 46.5212 38.879 46.7549 38.84 47.0849Z" fill="black"/>
<path d="M149.702 90.3609C149.702 96.6309 153.024 100.98 158.648 100.98C164.272 100.98 167.593 96.6263 167.593 90.3609C167.593 84.0955 164.265 79.7367 158.648 79.7367C153.031 79.7367 149.702 84.0909 149.702 90.3609ZM153.941 90.3609C153.941 86.6805 155.323 83.8251 158.651 83.8251C161.978 83.8251 163.355 86.6805 163.355 90.3609C163.355 94.0413 161.969 96.8921 158.651 96.8921C155.332 96.8921 153.941 94.0413 153.941 90.3609ZM115.159 90.3609C115.159 96.8623 118.776 100.98 124.161 100.98C127.903 100.98 130.371 99.2457 131.785 96.3284L128.313 94.2658C127.225 96.09 126.132 96.8852 124.28 96.8852C121.186 96.8852 119.387 94.0596 119.387 90.354C119.387 86.5269 121.161 83.8182 124.246 83.8182C126.095 83.8182 127.275 84.6432 128.013 86.0525L131.84 84.2879C130.541 81.6067 128.185 79.7046 124.301 79.7046C118.915 79.7046 115.15 84.0588 115.15 90.3288M29.0431 90.3288C29.0431 96.5988 32.3658 100.948 37.9896 100.948C43.6133 100.948 46.9341 96.5943 46.9341 90.3288C46.9341 84.0634 43.6065 79.7046 37.9896 79.7046C32.3727 79.7046 29.0431 84.0588 29.0431 90.3288ZM33.2826 90.3288C33.2826 86.6484 34.6646 83.7929 37.9921 83.7929C41.3196 83.7929 42.7013 86.6484 42.7013 90.3288C42.7013 94.0093 41.3196 96.86 37.9921 96.86C34.6646 96.86 33.2826 94.0093 33.2826 90.3288ZM10.595 85.7385C10.595 89.7948 13.2488 91.0026 17.0392 91.8872C20.9259 92.7695 21.634 93.3606 21.634 94.6829C21.634 96.2413 20.4835 96.9174 18.0452 96.9174C16.0698 96.9174 14.2183 96.2436 12.7745 94.5615L9.80225 97.2107C11.3606 99.5092 14.3671 100.946 17.8069 100.946C23.4329 100.946 25.8965 98.2969 25.8965 94.3828C25.8965 89.9094 22.2758 88.7956 19.0056 88.0302C15.7354 87.2648 14.8575 86.8501 14.8575 85.5553C14.8575 84.6455 15.591 83.699 17.8001 83.699C19.6885 83.699 21.1574 84.469 22.4819 85.8188L25.452 82.9381C23.5109 80.91 21.1573 79.7023 17.949 79.7023C13.8881 79.7023 10.5928 81.9986 10.5928 85.7363M193.461 80.0232V100.648H199.612C204.91 100.648 210.144 97.591 210.144 90.3516C210.144 82.8121 205.79 80.046 199.905 80.046L193.461 80.0232ZM197.579 84.0268H199.765C204.113 84.0268 205.907 86.1168 205.907 90.3288C205.907 94.0941 203.936 96.6239 199.612 96.6239H197.579V84.0268ZM184.191 80.0232V91.5915C184.191 94.8869 182.573 96.9174 179.958 96.9174C177.344 96.9174 175.742 94.8273 175.742 91.5319V80.0208H171.624V91.5892C171.624 97.5934 174.976 100.946 179.956 100.946C185.195 100.946 188.312 97.5017 188.312 91.5319V80.0208L184.191 80.0232ZM135.383 80.0232V100.648H147.763V96.5873H139.504V80.0484L135.383 80.0232ZM94.7931 80.0232V100.648H100.942C106.24 100.648 111.479 97.591 111.479 90.3516C111.479 82.8121 107.125 80.046 101.24 80.046L94.7931 80.0232ZM98.9112 84.0268H101.093C105.447 84.0268 107.244 86.1168 107.244 90.3288C107.244 94.0941 105.269 96.6239 100.942 96.6239H98.9137L98.9112 84.0268ZM85.4365 80.0232V88.7361L85.4935 93.2392C85.2277 92.7052 84.577 91.6808 84.0545 90.9131L76.751 80.0232H72.8094V100.648H76.8701V91.5846L76.8083 87.0814C77.0742 87.6085 77.7525 88.6398 78.2521 89.4075L85.8144 100.648H89.495V80.0232H85.4365ZM63.544 80.0232V91.5915C63.544 94.8869 61.9169 96.9174 59.3044 96.9174C56.6919 96.9174 55.0946 94.8273 55.0946 91.5319V80.0208H50.9697V91.5892C50.9697 97.5934 54.3316 100.946 59.3022 100.946C64.5364 100.946 67.6576 97.5017 67.6576 91.5319V80.0208L63.544 80.0232Z" fill="black"/>
</svg>
