<svg width="190" height="20" viewBox="0 0 190 20" fill="none" xmlns="http://www.w3.org/2000/svg">
<path d="M43.1103 0.00543404C37.6439 0.195931 33.6683 2.69724 32.5253 6.65626C32.1857 7.80753 32.1112 8.50325 32.1609 9.9444C32.1857 10.988 32.2437 11.4187 32.4094 12.0482C33.2128 15.0961 35.2006 17.1667 38.4059 18.2766C40.0706 18.8646 41.6195 19.0883 43.8557 19.0883C48.6596 19.0883 52.1713 17.6057 53.9852 14.8311C54.3331 14.301 54.9128 12.9675 54.9128 12.6942C54.9128 12.6528 54.1674 12.6196 53.0493 12.6196H51.1857L50.8544 13.1497C50.0013 14.4998 48.5188 15.4191 46.5061 15.8581C45.5205 16.0734 43.3754 16.1563 42.2986 16.0237C39.4495 15.6676 37.4451 14.4501 36.4843 12.4954C36.0868 11.692 35.9377 11.0791 35.888 9.9941C35.6644 5.5961 38.6543 3.01197 43.9386 3.01197C47.0528 3.01197 49.4298 4.02243 50.6474 5.86114L50.9621 6.32496H52.8919C53.9604 6.32496 54.83 6.3084 54.83 6.30012C54.83 6.28355 54.7638 6.06821 54.6727 5.81973C53.4717 2.32453 49.7114 0.187648 44.4769 0.0137165C44.0462 -0.00284844 43.4333 -0.00284844 43.1103 0.00543404Z" fill="white"/>
<path d="M1.52588e-05 0.278764C1.52588e-05 0.361589 9.56628 18.318 9.82303 18.7321C9.93899 18.9143 9.96384 18.9143 11.8854 18.9143H13.8318L14.0222 18.6079C14.279 18.1938 23.7707 0.320176 23.7707 0.245634C23.7707 0.220786 22.8928 0.195939 21.8243 0.195939H19.878L19.7123 0.460978C19.6295 0.610063 17.8322 4.03901 15.7284 8.08086C13.6247 12.131 11.8771 15.4108 11.844 15.3777C11.8108 15.3446 10.0467 11.9571 7.91806 7.85723C5.78118 3.7574 4.00045 0.353306 3.95904 0.295329C3.85137 0.162809 1.52588e-05 0.146244 1.52588e-05 0.278764Z" fill="white"/>
<path d="M25.7171 0.295298C25.6923 0.353276 25.684 4.56077 25.6923 9.63793L25.7171 18.8729H27.4978H29.2786V9.55511V0.237321L27.5144 0.212474C26.1561 0.195909 25.7419 0.212474 25.7171 0.295298Z" fill="white"/>
<path d="M57.5632 9.55514V18.9143L66.9473 18.8978L76.323 18.8729L76.3479 17.4401L76.3645 16.0155H68.7446H61.1247V13.4479V10.8803H67.9577H74.7908V9.47231V8.06429H67.9577H61.1247V5.57955V3.09481H68.7446H76.3645L76.3479 1.66194L76.323 0.237354L66.9473 0.212506L57.5632 0.195941V9.55514Z" fill="white"/>
<path d="M87.2145 9.55514V18.9143H88.4568H89.6992L89.7158 11.1868L89.7406 3.45095L93.9813 11.1619L98.2136 18.8729L99.5471 18.8978L100.881 18.9143L101.021 18.6824C101.104 18.5499 103.017 15.0878 105.27 10.9797L109.37 3.51721L109.412 11.1951L109.453 18.8729H110.695H111.938V9.55514V0.237354L110.182 0.212506L108.434 0.195941L108.277 0.419568C108.186 0.552088 106.198 4.14668 103.862 8.41216C101.518 12.6859 99.5802 16.1811 99.5554 16.1811C99.5305 16.1811 97.5593 12.5948 95.1656 8.2051L90.8173 0.237354L89.02 0.212506L87.2145 0.195941V9.55514Z" fill="white"/>
<path d="M115.665 0.295331C115.64 0.353308 115.632 4.56081 115.64 9.63796L115.665 18.8729L124.842 18.8978L134.01 18.9143V17.7962V16.6781H126.142H118.274V13.6136V10.549H125.355H132.437V9.47231V8.39559H125.355H118.274V5.4139V2.43221H126.142H134.01V1.31408V0.195941H124.858C117.611 0.195941 115.69 0.220789 115.665 0.295331Z" fill="white"/>
<path d="M137.199 0.2953C137.174 0.353278 137.166 4.56078 137.174 9.63793L137.199 18.8729H142.914C149.035 18.8729 149.457 18.848 151.172 18.4091C155.735 17.2578 158.262 14.1022 158.278 9.55511C158.278 9.12442 158.22 8.41213 158.162 7.98144C157.591 4.21291 155.197 1.71989 151.172 0.701142C149.499 0.278735 149.167 0.253888 143.022 0.220758C138.259 0.187628 137.232 0.204193 137.199 0.2953ZM148.853 2.63924C151.089 2.92913 152.621 3.63314 153.83 4.91692C154.973 6.13445 155.462 7.50934 155.462 9.55511C155.462 11.6009 154.973 12.9758 153.83 14.1933C152.621 15.4771 151.089 16.1811 148.853 16.471C148.132 16.5704 146.973 16.5952 143.858 16.5952H139.808V9.55511V2.515H143.858C146.973 2.515 148.132 2.53985 148.853 2.63924Z" fill="white"/>
<path d="M161.053 0.295298C161.028 0.353276 161.02 4.56077 161.028 9.63793L161.053 18.8729H162.337H163.62V9.55511V0.237321L162.353 0.212474C161.392 0.195909 161.078 0.212474 161.053 0.295298Z" fill="white"/>
<path d="M175.936 0.303593C175.845 0.411265 166.171 18.583 166.088 18.7984C166.047 18.8978 166.238 18.9143 167.397 18.8978L168.755 18.8729L170.13 16.3053L171.505 13.7378H177.75H183.995L185.362 16.3053L186.737 18.8729L188.037 18.8978C188.907 18.9143 189.337 18.8895 189.337 18.8315C189.337 18.7487 179.862 0.808824 179.597 0.378135C179.481 0.195921 179.448 0.195921 177.75 0.195921C176.45 0.195921 176.003 0.220768 175.936 0.303593ZM180.318 6.77221C181.66 9.27352 182.769 11.3524 182.778 11.3938C182.794 11.427 180.533 11.4601 177.75 11.4601C174.967 11.4601 172.69 11.4435 172.69 11.4187C172.69 11.3938 173.816 9.26523 175.191 6.68938C177.162 2.97883 177.709 2.03463 177.783 2.11746C177.841 2.17543 178.976 4.2709 180.318 6.77221Z" fill="white"/>
</svg>
