<svg width="190" height="21" viewBox="0 0 190 21" fill="none" xmlns="http://www.w3.org/2000/svg">
<path d="M43.4416 0.472095C37.9752 0.662592 33.9996 3.1639 32.8566 7.12292C32.517 8.27419 32.4425 8.96992 32.4922 10.4111C32.517 11.4547 32.575 11.8853 32.7406 12.5148C33.544 15.5628 35.5318 17.6334 38.7372 18.7432C40.4019 19.3313 41.9508 19.5549 44.187 19.5549C48.9909 19.5549 52.5026 18.0724 54.3165 15.2977C54.6644 14.7676 55.2441 13.4342 55.2441 13.1608C55.2441 13.1194 54.4987 13.0863 53.3806 13.0863H51.517L51.1857 13.6164C50.3326 14.9664 48.8501 15.8858 46.8374 16.3248C45.8518 16.5401 43.7066 16.6229 42.6299 16.4904C39.7808 16.1343 37.7764 14.9167 36.8156 12.9621C36.4181 12.1587 36.269 11.5458 36.2193 10.4608C35.9957 6.06277 38.9856 3.47863 44.2699 3.47863C47.3841 3.47863 49.7611 4.4891 50.9787 6.32781L51.2934 6.79162H53.2232C54.2916 6.79162 55.1613 6.77506 55.1613 6.76678C55.1613 6.75021 55.095 6.53487 55.0039 6.28639C53.803 2.79119 50.0427 0.65431 44.8082 0.480378C44.3775 0.463813 43.7646 0.463813 43.4416 0.472095Z" fill="black"/>
<path d="M0.331306 0.74542C0.331306 0.828244 9.89757 18.7847 10.1543 19.1988C10.2703 19.381 10.2951 19.381 12.2167 19.381H14.163L14.3535 19.0745C14.6103 18.6604 24.102 0.786832 24.102 0.71229C24.102 0.687442 23.2241 0.662595 22.1556 0.662595H20.2093L20.0436 0.927634C19.9608 1.07672 18.1635 4.50566 16.0597 8.54751C13.956 12.5976 12.2084 15.8775 12.1752 15.8444C12.1421 15.8112 10.378 12.4237 8.24935 8.32389C6.11248 4.22406 4.33174 0.819962 4.29033 0.761985C4.18266 0.629465 0.331306 0.6129 0.331306 0.74542Z" fill="black"/>
<path d="M26.0484 0.761965C26.0235 0.819943 26.0153 5.02744 26.0235 10.1046L26.0484 19.3396H27.8291H29.6099V10.0218V0.703988L27.8457 0.679141C26.4874 0.662576 26.0732 0.679141 26.0484 0.761965Z" fill="black"/>
<path d="M57.8945 10.0218V19.381L67.2786 19.3644L76.6543 19.3396L76.6792 17.9067L76.6958 16.4821H69.0759H61.456V13.9146V11.347H68.289H75.1221V9.93897V8.53095H68.289H61.456V6.04621V3.56146H69.0759H76.6958L76.6792 2.1286L76.6543 0.704009L67.2786 0.679162L57.8945 0.662597V10.0218Z" fill="black"/>
<path d="M87.5458 10.0218V19.381H88.7881H90.0305L90.0471 11.6534L90.0719 3.91761L94.3125 11.6286L98.5449 19.3396L99.8784 19.3644L101.212 19.381L101.353 19.1491C101.435 19.0166 103.349 15.5545 105.602 11.4464L109.701 3.98387L109.743 11.6617L109.784 19.3396H111.027H112.269V10.0218V0.704009L110.513 0.679162L108.765 0.662597L108.608 0.886224C108.517 1.01874 106.529 4.61334 104.194 8.87881C101.85 13.1526 99.9115 16.6478 99.8867 16.6478C99.8618 16.6478 97.8906 13.0615 95.4969 8.67175L91.1486 0.704009L89.3513 0.679162L87.5458 0.662597V10.0218Z" fill="black"/>
<path d="M115.996 0.761987C115.971 0.819964 115.963 5.02746 115.971 10.1046L115.996 19.3396L125.173 19.3644L134.342 19.381V18.2629V17.1447H126.473H118.605V14.0802V11.0157H125.687H132.768V9.93897V8.86225H125.687H118.605V5.88056V2.89887H126.473H134.342V1.78073V0.662597H125.19C117.942 0.662597 116.021 0.687444 115.996 0.761987Z" fill="black"/>
<path d="M137.531 0.761968C137.506 0.819945 137.497 5.02744 137.506 10.1046L137.531 19.3396H143.245C149.366 19.3396 149.789 19.3147 151.503 18.8757C156.067 17.7245 158.593 14.5689 158.609 10.0218C158.609 9.59109 158.551 8.87879 158.493 8.44811C157.922 4.67958 155.528 2.18655 151.503 1.16781C149.83 0.745403 149.499 0.720555 143.353 0.687425C138.591 0.654295 137.564 0.67086 137.531 0.761968ZM149.184 3.10591C151.42 3.39579 152.952 4.09981 154.162 5.38359C155.305 6.60111 155.793 7.976 155.793 10.0218C155.793 12.0675 155.305 13.4424 154.162 14.66C152.952 15.9437 151.42 16.6478 149.184 16.9376C148.463 17.037 147.304 17.0619 144.19 17.0619H140.14V10.0218V2.98167H144.19C147.304 2.98167 148.463 3.00652 149.184 3.10591Z" fill="black"/>
<path d="M161.384 0.761965C161.359 0.819943 161.351 5.02744 161.359 10.1046L161.384 19.3396H162.668H163.952V10.0218V0.703988L162.684 0.679141C161.724 0.662576 161.409 0.679141 161.384 0.761965Z" fill="black"/>
<path d="M176.268 0.770262C176.177 0.877934 166.503 19.0497 166.42 19.265C166.378 19.3644 166.569 19.381 167.728 19.3644L169.087 19.3396L170.462 16.772L171.837 14.2044H178.082H184.327L185.693 16.772L187.068 19.3396L188.368 19.3644C189.238 19.381 189.669 19.3561 189.669 19.2982C189.669 19.2153 180.194 1.27549 179.929 0.844804C179.813 0.66259 179.779 0.66259 178.082 0.66259C176.781 0.66259 176.334 0.687437 176.268 0.770262ZM180.649 7.23888C181.991 9.74019 183.101 11.8191 183.109 11.8605C183.126 11.8936 180.864 11.9268 178.082 11.9268C175.299 11.9268 173.021 11.9102 173.021 11.8853C173.021 11.8605 174.147 9.7319 175.522 7.15605C177.493 3.4455 178.04 2.5013 178.115 2.58413C178.173 2.6421 179.307 4.73757 180.649 7.23888Z" fill="black"/>
</svg>
