<svg id=" splitsvg" version="1.1" xmlns="http://www.w3.org/2000/svg" xmlns:xlink="http://www.w3.org/1999/xlink" width="1380" height="402"><g id="svgg"><path id="path0" d="M117.205 50.300 C 117.208 59.045,117.308 66.560,117.426 67.000 C 117.639 67.793,117.935 67.799,153.038 67.696 L 188.435 67.592 186.846 69.896 C 185.972 71.163,184.794 72.723,184.228 73.362 C 183.663 74.001,183.197 74.631,183.194 74.762 C 183.190 74.893,182.650 75.609,181.994 76.354 C 181.337 77.099,180.800 77.821,180.800 77.958 C 180.800 78.096,180.394 78.656,179.898 79.204 C 179.402 79.752,177.303 82.450,175.234 85.200 C 170.863 91.008,169.087 93.320,168.781 93.600 C 168.660 93.710,168.129 94.430,167.600 95.200 C 167.071 95.970,166.539 96.690,166.418 96.800 C 166.297 96.910,165.389 98.080,164.400 99.400 C 163.411 100.720,162.503 101.890,162.382 102.000 C 162.261 102.110,161.726 102.830,161.194 103.600 C 160.662 104.370,160.040 105.196,159.813 105.437 C 159.586 105.677,158.950 106.466,158.400 107.190 C 157.850 107.914,157.130 108.827,156.800 109.220 C 155.079 111.265,154.800 111.625,154.800 111.800 C 154.800 111.995,153.796 113.273,152.900 114.216 C 152.625 114.506,152.400 114.936,152.400 115.171 C 152.400 115.407,152.220 115.600,152.000 115.600 C 151.780 115.600,151.600 115.870,151.600 116.200 C 151.600 116.530,151.375 116.803,151.100 116.806 C 150.767 116.810,150.800 116.942,151.200 117.200 C 151.561 117.433,158.125 117.590,167.700 117.594 L 183.600 117.600 183.600 201.200 L 183.600 284.800 167.700 284.806 C 158.125 284.810,151.561 284.967,151.200 285.200 C 150.800 285.458,150.767 285.590,151.100 285.594 C 151.375 285.597,151.600 285.870,151.600 286.200 C 151.600 286.530,151.780 286.800,152.000 286.800 C 152.220 286.800,152.400 287.070,152.400 287.400 C 152.400 287.730,152.580 288.000,152.800 288.000 C 153.020 288.000,153.200 288.230,153.200 288.512 C 153.200 288.793,153.560 289.283,154.000 289.600 C 154.440 289.917,154.800 290.407,154.800 290.688 C 154.800 290.970,154.980 291.200,155.200 291.200 C 155.420 291.200,155.600 291.388,155.600 291.618 C 155.600 291.848,156.005 292.456,156.500 292.968 C 157.700 294.210,158.800 295.564,158.800 295.800 C 158.800 295.995,159.804 297.273,160.700 298.216 C 160.975 298.506,161.200 298.896,161.200 299.083 C 161.200 299.270,161.560 299.683,162.000 300.000 C 162.440 300.317,162.800 300.715,162.800 300.884 C 162.800 301.158,163.403 301.982,164.600 303.345 C 164.820 303.595,165.810 304.880,166.799 306.200 C 167.788 307.520,168.688 308.690,168.799 308.800 C 169.060 309.060,170.835 311.367,174.029 315.600 C 175.440 317.470,176.695 319.090,176.817 319.200 C 176.939 319.310,177.471 320.030,178.000 320.800 C 178.529 321.570,179.069 322.290,179.200 322.400 C 179.331 322.510,179.874 323.230,180.406 324.000 C 180.938 324.770,181.617 325.650,181.914 325.956 C 182.212 326.262,182.758 326.982,183.128 327.556 C 183.801 328.602,184.224 329.147,185.900 331.134 C 186.394 331.720,186.799 332.425,186.800 332.700 C 186.800 332.975,186.937 333.200,187.104 333.200 C 187.271 333.200,187.635 333.565,187.914 334.010 L 188.420 334.821 153.030 334.710 C 117.932 334.601,117.639 334.607,117.426 335.400 C 117.091 336.646,117.162 368.000,117.500 368.000 C 117.665 368.000,117.800 360.755,117.800 351.900 L 117.800 335.800 153.195 335.600 C 184.237 335.425,188.602 335.326,188.696 334.800 C 188.785 334.302,186.921 331.501,184.698 328.793 C 184.424 328.458,182.503 325.938,180.430 323.193 C 178.356 320.447,176.286 317.737,175.830 317.171 C 175.373 316.606,174.550 315.547,174.000 314.819 C 172.187 312.420,165.647 303.895,161.287 298.247 C 152.877 287.352,152.020 286.194,152.010 285.700 C 152.002 285.308,155.453 285.200,167.957 285.200 C 182.139 285.200,183.941 285.130,184.157 284.567 C 184.475 283.740,184.475 118.660,184.157 117.833 C 183.941 117.270,182.139 117.200,167.957 117.200 C 156.444 117.200,152.000 117.075,152.000 116.752 C 152.000 116.322,152.994 114.981,161.698 103.667 C 163.841 100.880,167.932 95.540,170.787 91.800 C 176.283 84.602,182.733 76.171,184.400 74.005 C 187.922 69.430,188.792 68.133,188.696 67.600 C 188.602 67.073,184.276 66.988,153.086 66.898 L 117.582 66.796 117.691 50.598 C 117.751 41.689,117.665 34.400,117.500 34.400 C 117.335 34.400,117.202 41.555,117.205 50.300 M283.400 50.538 L 283.400 66.600 247.942 66.702 C 217.663 66.789,212.452 66.888,212.265 67.375 C 212.139 67.704,213.249 69.524,214.889 71.673 C 216.453 73.723,219.180 77.290,220.949 79.600 C 222.719 81.910,226.154 86.415,228.583 89.610 C 231.012 92.806,233.765 96.406,234.701 97.610 C 242.735 107.956,249.200 116.524,249.200 116.826 C 249.200 117.038,242.456 117.235,233.100 117.295 L 217.000 117.400 217.000 201.200 L 217.000 285.000 233.000 285.200 C 246.559 285.369,248.981 285.487,248.877 285.969 C 248.809 286.283,247.289 288.443,245.498 290.769 C 243.707 293.096,241.378 296.125,240.321 297.500 C 239.265 298.875,237.534 301.125,236.476 302.500 C 235.418 303.875,233.313 306.620,231.799 308.600 C 227.145 314.686,224.285 318.423,220.933 322.800 C 213.702 332.243,212.079 334.541,212.277 335.056 C 212.448 335.502,218.616 335.613,247.942 335.698 L 283.400 335.800 283.400 351.862 C 283.400 360.696,283.535 367.840,283.700 367.738 C 284.177 367.443,284.067 336.473,283.586 335.574 C 283.181 334.818,282.364 334.800,247.986 334.800 C 228.634 334.800,212.800 334.682,212.800 334.538 C 212.800 334.278,214.735 331.586,215.198 331.200 C 215.330 331.090,215.871 330.370,216.400 329.600 C 216.929 328.830,217.469 328.110,217.600 328.000 C 217.731 327.890,218.271 327.170,218.800 326.400 C 219.329 325.630,219.866 324.910,219.995 324.800 C 220.123 324.690,221.800 322.495,223.721 319.921 C 225.642 317.348,227.442 315.008,227.720 314.721 C 227.999 314.435,228.662 313.570,229.194 312.800 C 229.726 312.030,230.263 311.310,230.388 311.200 C 230.513 311.090,231.961 309.202,233.607 307.003 C 236.878 302.636,237.548 301.776,238.300 300.984 C 238.575 300.694,238.800 300.304,238.800 300.117 C 238.800 299.930,239.160 299.517,239.600 299.200 C 240.040 298.883,240.400 298.433,240.400 298.200 C 240.400 297.967,240.760 297.517,241.200 297.200 C 241.640 296.883,242.000 296.485,242.000 296.316 C 242.000 296.022,242.845 294.896,243.900 293.784 C 244.175 293.494,244.400 293.156,244.400 293.033 C 244.400 292.810,245.351 291.583,246.300 290.584 C 246.575 290.294,246.800 289.904,246.800 289.717 C 246.800 289.530,247.160 289.117,247.600 288.800 C 248.040 288.483,248.400 287.993,248.400 287.712 C 248.400 287.430,248.580 287.200,248.800 287.200 C 249.020 287.200,249.200 286.945,249.200 286.633 C 249.200 286.322,249.425 285.975,249.700 285.864 C 251.690 285.057,247.849 284.812,233.100 284.806 L 217.200 284.800 217.200 201.200 L 217.200 117.600 233.100 117.594 C 247.849 117.588,251.690 117.343,249.700 116.536 C 249.425 116.425,249.200 116.078,249.200 115.767 C 249.200 115.455,249.020 115.200,248.800 115.200 C 248.580 115.200,248.400 114.970,248.400 114.688 C 248.400 114.407,248.040 113.917,247.600 113.600 C 247.160 113.283,246.800 112.870,246.800 112.683 C 246.800 112.496,246.575 112.114,246.300 111.835 C 246.025 111.555,245.350 110.730,244.800 110.002 C 244.250 109.273,243.350 108.102,242.800 107.400 C 242.250 106.698,241.350 105.527,240.800 104.798 C 240.250 104.070,239.575 103.245,239.300 102.965 C 239.025 102.686,238.800 102.356,238.800 102.233 C 238.800 102.030,238.066 101.062,236.997 99.855 C 236.775 99.605,235.248 97.600,233.604 95.400 C 231.960 93.200,230.513 91.310,230.388 91.200 C 230.263 91.090,229.729 90.370,229.200 89.600 C 228.671 88.830,228.136 88.110,228.011 88.000 C 227.337 87.409,223.600 82.361,223.600 82.042 C 223.600 81.836,223.449 81.607,223.265 81.533 C 223.080 81.460,221.776 79.870,220.367 78.000 C 218.958 76.130,217.705 74.510,217.583 74.400 C 217.461 74.290,216.929 73.570,216.400 72.800 C 215.871 72.030,215.330 71.310,215.198 71.200 C 214.792 70.862,212.800 68.137,212.800 67.919 C 212.800 67.806,228.595 67.682,247.900 67.642 C 280.020 67.575,283.042 67.513,283.500 66.908 C 284.061 66.167,284.254 35.004,283.700 34.662 C 283.535 34.560,283.400 41.704,283.400 50.538  M -25 0 L -5 0 L -5 20 L -25 20 Z M 405 0 L 425 0 L 425 20 L 405 20 Z" stroke="none" fill="#3c3c3c" fill-rule="evenodd" transform="translate(30,0)"></path><path id="path1" d="M117.868 34.666 C 117.720 34.813,117.600 42.102,117.600 50.865 L 117.600 66.796 153.095 66.898 C 184.277 66.988,188.602 67.073,188.696 67.600 C 188.792 68.133,187.922 69.430,184.400 74.005 C 182.733 76.171,176.283 84.602,170.787 91.800 C 167.932 95.540,163.841 100.880,161.698 103.667 C 152.994 114.981,152.000 116.322,152.000 116.752 C 152.000 117.075,156.444 117.200,167.957 117.200 C 182.139 117.200,183.941 117.270,184.157 117.833 C 184.475 118.660,184.475 283.740,184.157 284.567 C 183.941 285.130,182.139 285.200,167.957 285.200 C 155.453 285.200,152.002 285.308,152.010 285.700 C 152.020 286.194,152.877 287.352,161.287 298.247 C 165.647 303.895,172.187 312.420,174.000 314.819 C 174.550 315.547,175.373 316.606,175.830 317.171 C 176.286 317.737,178.356 320.447,180.430 323.193 C 182.503 325.938,184.424 328.458,184.698 328.793 C 186.921 331.501,188.785 334.302,188.696 334.800 C 188.602 335.326,184.237 335.425,153.195 335.600 L 117.800 335.800 117.800 351.800 L 117.800 367.800 200.600 367.800 L 283.400 367.800 283.400 351.800 L 283.400 335.800 247.942 335.698 C 218.616 335.613,212.448 335.502,212.277 335.056 C 212.079 334.541,213.702 332.243,220.933 322.800 C 225.206 317.220,228.623 312.754,231.876 308.500 C 233.348 306.575,235.418 303.875,236.476 302.500 C 237.534 301.125,239.265 298.875,240.321 297.500 C 241.378 296.125,243.707 293.096,245.498 290.769 C 247.289 288.443,248.809 286.283,248.877 285.969 C 248.981 285.487,246.559 285.369,233.000 285.200 L 217.000 285.000 217.000 201.200 L 217.000 117.400 233.100 117.295 C 242.456 117.235,249.200 117.038,249.200 116.826 C 249.200 116.524,242.735 107.956,234.701 97.610 C 233.765 96.406,231.012 92.806,228.583 89.610 C 226.154 86.415,222.719 81.910,220.949 79.600 C 219.180 77.290,216.453 73.723,214.889 71.673 C 213.249 69.524,212.139 67.704,212.265 67.375 C 212.452 66.888,217.663 66.789,247.942 66.702 L 283.400 66.600 283.400 50.600 L 283.400 34.600 200.768 34.499 C 155.320 34.444,118.015 34.519,117.868 34.666  M -25 0 L -5 0 L -5 20 L -25 20 Z M 405 0 L 425 0 L 425 20 L 405 20 Z" stroke="none" fill="#040404" fill-rule="evenodd" transform="translate(490,0)"></path><path id="path2" d="M116.183 33.700 C 115.624 35.156,116.213 67.792,116.800 67.905 C 117.327 68.007,117.386 65.979,117.283 51.209 L 117.167 34.398 200.483 34.499 L 283.800 34.600 283.905 50.318 C 283.974 60.698,283.867 66.301,283.591 66.818 C 283.181 67.583,282.538 67.600,253.186 67.600 C 225.644 67.600,217.930 67.871,226.500 68.538 C 233.359 69.072,283.345 68.816,284.100 68.243 C 284.748 67.752,284.800 66.421,284.800 50.456 L 284.800 33.200 200.587 33.200 C 133.575 33.200,116.336 33.302,116.183 33.700 M119.600 67.956 C 119.600 68.692,130.484 68.906,158.400 68.717 C 174.130 68.611,186.775 68.601,186.500 68.695 C 186.225 68.789,186.000 69.139,186.000 69.473 C 186.000 69.806,185.460 70.583,184.800 71.200 C 184.140 71.817,183.600 72.533,183.600 72.792 C 183.600 73.051,182.880 73.954,182.000 74.800 C 181.120 75.646,180.400 76.549,180.400 76.808 C 180.400 77.067,179.860 77.783,179.200 78.400 C 178.540 79.017,178.000 79.737,178.000 80.000 C 178.000 80.263,177.460 80.983,176.800 81.600 C 176.140 82.217,175.600 82.897,175.600 83.112 C 175.600 83.327,174.880 84.245,174.000 85.152 C 173.120 86.059,172.400 86.981,172.400 87.200 C 172.400 87.419,171.680 88.341,170.800 89.248 C 169.920 90.155,169.200 91.073,169.200 91.288 C 169.200 91.503,168.660 92.183,168.000 92.800 C 167.340 93.417,166.800 94.137,166.800 94.400 C 166.800 94.663,166.260 95.383,165.600 96.000 C 164.940 96.617,164.400 97.297,164.400 97.512 C 164.400 97.727,163.680 98.645,162.800 99.552 C 161.920 100.459,161.200 101.431,161.200 101.712 C 161.200 101.993,160.840 102.483,160.400 102.800 C 159.960 103.117,159.600 103.569,159.600 103.804 C 159.600 104.040,158.880 105.028,158.000 106.000 C 157.120 106.972,156.400 107.960,156.400 108.196 C 156.400 108.431,156.040 108.883,155.600 109.200 C 155.160 109.517,154.800 110.025,154.800 110.328 C 154.800 110.631,154.260 111.383,153.600 112.000 C 152.940 112.617,152.400 113.343,152.400 113.614 C 152.400 113.884,152.085 114.397,151.699 114.753 C 150.128 116.204,149.920 116.682,150.473 117.569 C 150.985 118.388,151.226 118.400,166.896 118.400 L 182.800 118.400 182.800 201.200 L 182.800 284.000 166.896 284.000 C 151.226 284.000,150.985 284.012,150.473 284.831 C 149.920 285.718,150.128 286.196,151.699 287.647 C 152.085 288.003,152.400 288.504,152.400 288.760 C 152.400 289.429,155.200 292.138,155.527 291.785 C 155.677 291.623,155.575 291.410,155.300 291.312 C 155.025 291.214,154.800 290.918,154.800 290.655 C 154.800 290.392,154.440 289.917,154.000 289.600 C 153.560 289.283,153.200 288.793,153.200 288.512 C 153.200 288.230,153.020 288.000,152.800 288.000 C 152.580 288.000,152.400 287.730,152.400 287.400 C 152.400 287.070,152.220 286.800,152.000 286.800 C 151.780 286.800,151.600 286.530,151.600 286.200 C 151.600 285.870,151.375 285.597,151.100 285.594 C 150.767 285.590,150.800 285.458,151.200 285.200 C 151.561 284.967,158.125 284.810,167.700 284.806 L 183.600 284.800 183.600 201.200 L 183.600 117.600 167.700 117.594 C 158.125 117.590,151.561 117.433,151.200 117.200 C 150.800 116.942,150.767 116.810,151.100 116.806 C 151.375 116.803,151.600 116.530,151.600 116.200 C 151.600 115.870,151.780 115.600,152.000 115.600 C 152.220 115.600,152.400 115.422,152.400 115.205 C 152.400 114.833,153.160 113.785,154.300 112.584 C 154.575 112.294,154.800 111.956,154.800 111.833 C 154.800 111.627,155.063 111.284,156.800 109.220 C 157.130 108.827,157.850 107.914,158.400 107.190 C 158.950 106.466,159.586 105.677,159.813 105.437 C 160.040 105.196,160.662 104.370,161.194 103.600 C 161.726 102.830,162.261 102.110,162.382 102.000 C 162.503 101.890,163.411 100.720,164.400 99.400 C 165.389 98.080,166.297 96.910,166.418 96.800 C 166.539 96.690,167.071 95.970,167.600 95.200 C 168.129 94.430,168.660 93.710,168.781 93.600 C 169.087 93.320,170.863 91.008,175.234 85.200 C 177.303 82.450,179.402 79.752,179.898 79.204 C 180.394 78.656,180.800 78.096,180.800 77.958 C 180.800 77.821,181.337 77.099,181.994 76.354 C 182.650 75.609,183.190 74.893,183.194 74.762 C 183.197 74.631,183.663 74.001,184.228 73.362 C 184.794 72.723,185.968 71.169,186.837 69.908 L 188.418 67.617 154.009 67.604 C 133.614 67.597,119.600 67.740,119.600 67.956 M212.800 67.914 C 212.800 68.136,214.786 70.857,215.198 71.200 C 215.330 71.310,215.871 72.030,216.400 72.800 C 216.929 73.570,217.461 74.290,217.583 74.400 C 217.705 74.510,218.958 76.130,220.367 78.000 C 221.776 79.870,223.080 81.460,223.265 81.533 C 223.449 81.607,223.600 81.836,223.600 82.042 C 223.600 82.361,227.337 87.409,228.011 88.000 C 228.136 88.110,228.671 88.830,229.200 89.600 C 229.729 90.370,230.263 91.090,230.388 91.200 C 230.513 91.310,231.961 93.198,233.607 95.397 C 236.878 99.764,237.548 100.624,238.300 101.416 C 238.575 101.706,238.800 102.059,238.800 102.200 C 238.800 102.341,239.025 102.686,239.300 102.965 C 239.575 103.245,240.250 104.070,240.800 104.798 C 241.350 105.527,242.250 106.698,242.800 107.400 C 243.350 108.102,244.250 109.273,244.800 110.002 C 245.350 110.730,246.025 111.555,246.300 111.835 C 246.575 112.114,246.800 112.496,246.800 112.683 C 246.800 112.870,247.160 113.283,247.600 113.600 C 248.040 113.917,248.400 114.407,248.400 114.688 C 248.400 114.970,248.580 115.200,248.800 115.200 C 249.020 115.200,249.200 115.455,249.200 115.767 C 249.200 116.078,249.425 116.425,249.700 116.536 C 251.690 117.343,247.849 117.588,233.100 117.594 L 217.200 117.600 217.200 201.200 L 217.200 284.800 233.100 284.806 C 247.849 284.812,251.690 285.057,249.700 285.864 C 249.425 285.975,249.200 286.322,249.200 286.633 C 249.200 286.945,249.020 287.200,248.800 287.200 C 248.580 287.200,248.400 287.430,248.400 287.712 C 248.400 287.993,248.040 288.483,247.600 288.800 C 247.160 289.117,246.800 289.515,246.800 289.684 C 246.800 289.978,245.955 291.104,244.900 292.216 C 244.625 292.506,244.400 292.844,244.400 292.967 C 244.400 293.190,243.449 294.417,242.500 295.416 C 242.225 295.706,242.000 296.096,242.000 296.283 C 242.000 296.470,241.640 296.883,241.200 297.200 C 240.760 297.517,240.400 297.967,240.400 298.200 C 240.400 298.433,240.040 298.883,239.600 299.200 C 239.160 299.517,238.800 299.915,238.800 300.084 C 238.800 300.359,238.162 301.229,236.997 302.545 C 236.775 302.795,235.248 304.800,233.604 307.000 C 231.960 309.200,230.513 311.090,230.388 311.200 C 230.263 311.310,229.726 312.030,229.194 312.800 C 228.662 313.570,227.999 314.435,227.720 314.721 C 227.442 315.008,225.642 317.348,223.721 319.921 C 221.800 322.495,220.123 324.690,219.995 324.800 C 219.866 324.910,219.329 325.630,218.800 326.400 C 218.271 327.170,217.731 327.890,217.600 328.000 C 217.469 328.110,216.929 328.830,216.400 329.600 C 215.871 330.370,215.330 331.090,215.198 331.200 C 214.735 331.586,212.800 334.278,212.800 334.538 C 212.800 334.682,228.634 334.800,247.986 334.800 C 282.499 334.800,283.180 334.815,283.591 335.582 C 283.867 336.099,283.974 341.702,283.905 352.082 L 283.800 367.800 200.483 367.901 L 117.167 368.002 117.283 351.191 C 117.386 336.421,117.327 334.393,116.800 334.495 C 115.975 334.654,115.678 368.036,116.496 368.713 C 116.895 369.043,261.959 369.505,281.900 369.239 L 284.800 369.200 284.800 351.896 C 284.800 335.017,284.780 334.580,283.999 334.092 C 283.373 333.702,275.723 333.595,249.141 333.605 C 218.475 333.616,213.417 333.513,215.100 332.912 C 215.375 332.814,215.600 332.464,215.600 332.135 C 215.600 331.806,216.320 330.846,217.200 330.000 C 218.080 329.154,218.800 328.251,218.800 327.992 C 218.800 327.733,219.340 327.017,220.000 326.400 C 220.660 325.783,221.200 325.081,221.200 324.840 C 221.200 324.598,221.920 323.659,222.800 322.752 C 223.680 321.845,224.400 320.927,224.400 320.712 C 224.400 320.497,224.940 319.817,225.600 319.200 C 226.260 318.583,226.800 317.867,226.800 317.608 C 226.800 317.349,227.520 316.446,228.400 315.600 C 229.280 314.754,230.000 313.851,230.000 313.592 C 230.000 313.333,230.540 312.617,231.200 312.000 C 231.860 311.383,232.400 310.663,232.400 310.400 C 232.400 310.137,232.940 309.417,233.600 308.800 C 234.260 308.183,234.800 307.463,234.800 307.200 C 234.800 306.937,235.340 306.217,236.000 305.600 C 236.660 304.983,237.200 304.281,237.200 304.040 C 237.200 303.798,237.380 303.600,237.600 303.600 C 237.820 303.600,238.000 303.370,238.000 303.088 C 238.000 302.807,238.360 302.317,238.800 302.000 C 239.240 301.683,239.600 301.175,239.600 300.872 C 239.600 300.569,240.140 299.817,240.800 299.200 C 241.460 298.583,242.000 297.863,242.000 297.600 C 242.000 297.337,242.540 296.617,243.200 296.000 C 243.860 295.383,244.400 294.663,244.400 294.400 C 244.400 294.137,244.940 293.417,245.600 292.800 C 246.260 292.183,246.800 291.481,246.800 291.240 C 246.800 290.998,247.520 290.059,248.400 289.152 C 249.280 288.245,250.000 287.255,250.000 286.952 C 250.000 286.648,250.180 286.400,250.400 286.400 C 250.620 286.400,250.800 285.860,250.800 285.200 L 250.800 284.000 234.400 284.000 L 218.000 284.000 218.000 201.200 L 218.000 118.400 234.400 118.400 L 250.800 118.400 250.800 117.200 C 250.800 116.540,250.620 116.000,250.400 116.000 C 250.180 116.000,250.000 115.712,250.000 115.360 C 250.000 115.009,249.460 114.217,248.800 113.600 C 248.140 112.983,247.600 112.263,247.600 112.000 C 247.600 111.737,247.060 111.017,246.400 110.400 C 245.740 109.783,245.200 109.063,245.200 108.800 C 245.200 108.537,244.660 107.817,244.000 107.200 C 243.340 106.583,242.800 105.863,242.800 105.600 C 242.800 105.337,242.260 104.617,241.600 104.000 C 240.940 103.383,240.400 102.708,240.400 102.499 C 240.400 102.290,239.860 101.554,239.200 100.863 C 238.540 100.172,238.000 99.447,238.000 99.252 C 238.000 99.056,237.280 98.155,236.400 97.248 C 235.520 96.341,234.800 95.402,234.800 95.160 C 234.800 94.919,234.260 94.217,233.600 93.600 C 232.940 92.983,232.400 92.263,232.400 92.000 C 232.400 91.737,231.860 91.017,231.200 90.400 C 230.540 89.783,230.000 89.103,230.000 88.888 C 230.000 88.673,229.280 87.755,228.400 86.848 C 227.520 85.941,226.800 85.002,226.800 84.760 C 226.800 84.519,226.260 83.817,225.600 83.200 C 224.940 82.583,224.400 81.903,224.400 81.688 C 224.400 81.473,223.680 80.555,222.800 79.648 C 221.920 78.741,221.200 77.805,221.200 77.568 C 221.200 77.331,220.480 76.446,219.600 75.600 C 218.720 74.754,218.000 73.851,218.000 73.592 C 218.000 73.333,217.460 72.617,216.800 72.000 C 216.140 71.383,215.600 70.657,215.600 70.386 C 215.600 70.116,215.195 69.540,214.700 69.108 C 213.848 68.364,213.843 68.327,214.600 68.407 C 216.301 68.588,218.000 68.382,218.000 67.995 C 218.000 67.758,216.924 67.614,215.400 67.647 C 213.970 67.678,212.800 67.798,212.800 67.914 M155.600 292.912 C 155.600 293.193,155.960 293.683,156.400 294.000 C 156.840 294.317,157.200 294.807,157.200 295.088 C 157.200 295.370,157.380 295.600,157.600 295.600 C 157.820 295.600,158.000 295.830,158.000 296.112 C 158.000 296.393,158.360 296.883,158.800 297.200 C 159.240 297.517,159.600 297.980,159.600 298.229 C 159.600 298.478,160.140 299.246,160.800 299.937 C 161.460 300.628,162.000 301.392,162.000 301.636 C 162.000 301.880,162.540 302.583,163.200 303.200 C 163.860 303.817,164.400 304.519,164.400 304.760 C 164.400 305.002,165.120 305.941,166.000 306.848 C 166.880 307.755,167.600 308.673,167.600 308.888 C 167.600 309.103,168.140 309.783,168.800 310.400 C 169.460 311.017,170.000 311.737,170.000 312.000 C 170.000 312.263,170.540 312.983,171.200 313.600 C 171.860 314.217,172.400 314.937,172.400 315.200 C 172.400 315.463,172.940 316.183,173.600 316.800 C 174.260 317.417,174.800 318.097,174.800 318.312 C 174.800 318.527,175.520 319.445,176.400 320.352 C 177.280 321.259,178.000 322.198,178.000 322.440 C 178.000 322.681,178.540 323.383,179.200 324.000 C 179.860 324.617,180.400 325.333,180.400 325.592 C 180.400 325.851,181.120 326.754,182.000 327.600 C 182.880 328.446,183.600 329.349,183.600 329.608 C 183.600 329.867,184.140 330.583,184.800 331.200 C 187.465 333.689,189.317 333.545,152.833 333.679 C 122.937 333.788,118.575 333.908,119.269 334.602 C 119.380 334.713,134.990 334.758,153.958 334.702 L 188.446 334.600 187.623 333.717 C 187.170 333.231,186.800 332.691,186.800 332.517 C 186.799 332.343,186.394 331.720,185.900 331.134 C 184.224 329.147,183.801 328.602,183.128 327.556 C 182.758 326.982,182.212 326.262,181.914 325.956 C 181.617 325.650,180.938 324.770,180.406 324.000 C 179.874 323.230,179.331 322.510,179.200 322.400 C 179.069 322.290,178.529 321.570,178.000 320.800 C 177.471 320.030,176.939 319.310,176.817 319.200 C 176.695 319.090,175.440 317.470,174.029 315.600 C 170.835 311.367,169.060 309.060,168.799 308.800 C 168.688 308.690,167.788 307.524,166.799 306.209 C 164.635 303.333,163.959 302.478,163.300 301.784 C 163.025 301.494,162.800 301.104,162.800 300.917 C 162.800 300.730,162.440 300.317,162.000 300.000 C 161.560 299.683,161.200 299.285,161.200 299.116 C 161.200 298.822,160.355 297.696,159.300 296.584 C 159.025 296.294,158.800 295.941,158.800 295.800 C 158.800 295.659,158.575 295.315,158.300 295.037 C 158.025 294.759,157.442 294.052,157.005 293.466 C 156.145 292.313,155.600 292.098,155.600 292.912 M15.467 401.467 C 15.320 401.613,15.200 401.883,15.200 402.067 C 15.200 402.250,23.232 402.400,33.049 402.400 C 48.869 402.400,50.841 402.332,50.400 401.800 C 49.877 401.170,16.086 400.847,15.467 401.467  M -25 0 L -5 0 L -5 20 L -25 20 Z M 405 0 L 425 0 L 425 20 L 405 20 Z" stroke="none" fill="#5a5a5a" fill-rule="evenodd" transform="translate(950,0)"></path></g></svg>