<svg width="1768" height="445" viewBox="0 0 1768 445" fill="none" xmlns="http://www.w3.org/2000/svg">
<circle cx="1370.5" cy="115.5" r="22.5" fill="white"/>
<mask id="mask0_445_114" style="mask-type:alpha" maskUnits="userSpaceOnUse" x="585" y="157" width="172" height="172">
<circle cx="671" cy="243" r="66" fill="black" stroke="black" stroke-width="40"/>
</mask>
<g mask="url(#mask0_445_114)">
<path d="M602 225H748C760.703 225 771 235.297 771 248V258H602V225Z" fill="white"/>
</g>
<mask id="mask1_445_114" style="mask-type:alpha" maskUnits="userSpaceOnUse" x="560" y="137" width="209" height="228">
<path d="M695 244H760.5L769 142.5L736.5 137L569.5 142.5L560 365H711L763 274.5H695V244Z" fill="black"/>
</mask>
<g mask="url(#mask1_445_114)">
<path d="M734 243.5C734 278.696 705.668 307 671 307C636.332 307 608 278.696 608 243.5C608 208.304 636.332 180 671 180C705.668 180 734 208.304 734 243.5Z" stroke="white" stroke-width="46"/>
</g>
<path d="M1270 180L1311 180" stroke="white" stroke-width="46" stroke-linecap="round"/>
<path d="M1371 180L1371 307" stroke="white" stroke-width="46" stroke-linecap="square"/>
<path d="M1270 137L1270 307" stroke="white" stroke-width="46" stroke-linecap="square"/>
<path d="M490 307V237C490 205.52 515.52 180 547 180V180" stroke="white" stroke-width="46" stroke-linecap="square"/>
<path d="M1631 307V237C1631 205.52 1656.52 180 1688 180V180C1719.48 180 1745 205.52 1745 237V307" stroke="white" stroke-width="46" stroke-linecap="square"/>
<path d="M908.545 307V228.455C908.545 201.142 930.687 179 958 179V179C985.313 179 1007.45 201.142 1007.45 228.455V307" stroke="white" stroke-width="46" stroke-linecap="square"/>
<path d="M809 307V228.455C809 201.142 831.142 179 858.455 179V179C885.768 179 907.909 201.142 907.909 228.455V307" stroke="white" stroke-width="46" stroke-linecap="square"/>
<circle cx="1502.5" cy="243.5" r="63.5" stroke="white" stroke-width="46"/>
<path d="M1201 243.5C1201 279.08 1172.96 307 1139.5 307C1106.04 307 1078 279.08 1078 243.5C1078 207.92 1106.04 180 1139.5 180C1172.96 180 1201 207.92 1201 243.5Z" stroke="white" stroke-width="46"/>
<path d="M122.12 47.3313C114.793 47.729 108.889 48.8915 102.939 51.1554C99.9711 52.272 95.1069 54.7042 92.43 56.3868C81.233 63.4078 72.6976 73.9623 68.2464 86.2453C67.3592 88.6775 64.9577 96.4327 63.4127 101.771C53.1182 137.458 47.275 176.479 46.0207 217.779C45.8219 224.356 45.8219 240.02 46.0207 246.49C46.862 273.871 49.4777 298.59 54.2196 323.798C56.1469 334.001 59.2368 347.707 61.0265 353.932C64.6823 366.582 72.147 377.351 82.7627 385.244C89.8755 390.537 97.952 394.085 106.9 395.829C111.214 396.67 116.904 397.053 121.095 396.777C126.893 396.395 138.396 394.85 147.742 393.183C189.868 385.672 228.782 372.227 264.071 352.984C286.419 340.793 305.524 327.592 323.956 311.577C342.327 295.638 357.991 278.49 371.773 259.248C374.97 254.796 376.576 252.196 378.182 248.923C382.312 240.479 384.255 232.081 384.239 222.689C384.239 213.94 382.587 206.169 379.023 198.215C377.31 194.376 375.673 191.622 372.002 186.391C358.48 167.133 343.474 150.353 325.18 134.047C296.82 108.777 263.138 88.0503 225.524 72.708C217.371 69.3887 209.34 66.4671 199.673 63.3007C179.206 56.6162 153.876 50.8189 132.445 47.9279C129.08 47.469 124.507 47.2089 122.12 47.3313Z" fill="white" fill-opacity="0.3"/>
<path d="M96.8973 0.0383084C87.5862 0.543716 80.0828 2.02106 72.5211 4.898C68.75 6.31703 62.5685 9.40783 59.1667 11.5461C44.9375 20.4685 34.0907 33.8812 28.434 49.4905C27.3066 52.5813 24.2547 62.4367 22.2914 69.2209C9.20911 114.571 1.78351 164.16 0.189528 216.644C-0.063176 225.003 -0.063176 244.908 0.189528 253.131C1.25866 287.926 4.58269 319.339 10.6087 351.374C13.058 364.34 16.9846 381.757 19.2589 389.669C23.9048 405.745 33.3909 419.429 46.8814 429.46C55.9204 436.186 66.1841 440.695 77.5558 442.911C83.0375 443.981 90.2687 444.467 95.5949 444.117C102.962 443.631 117.58 441.667 129.457 439.549C182.992 430.004 232.444 412.917 277.289 388.464C305.689 372.971 329.968 356.195 353.392 335.843C376.738 315.588 396.643 293.797 414.157 269.343C418.22 263.686 420.261 260.382 422.302 256.222C427.551 245.491 430.019 234.82 430 222.884C430 211.765 427.9 201.89 423.371 191.782C421.194 186.903 419.114 183.404 414.449 176.756C397.265 152.283 378.196 130.958 354.947 110.237C318.907 78.1238 276.103 51.7843 228.303 32.2872C217.942 28.069 207.737 24.3562 195.452 20.3324C169.443 11.8377 137.252 4.47037 110.019 0.796448C105.742 0.213286 99.9298 -0.117202 96.8973 0.0383084Z" fill="white" fill-opacity="0.1"/>
<path d="M148.226 96.3839C142.956 96.6699 138.71 97.5059 134.431 99.1339C132.297 99.937 128.799 101.686 126.874 102.896C118.822 107.945 112.684 115.535 109.483 124.369C108.845 126.118 107.118 131.695 106.007 135.534C98.6035 161.197 94.4014 189.259 93.4993 218.96C93.3563 223.69 93.3563 234.954 93.4993 239.607C94.1044 259.298 95.9854 277.074 99.3955 295.203C100.782 302.54 103.004 312.396 104.291 316.873C106.92 325.97 112.288 333.714 119.922 339.391C125.037 343.197 130.845 345.749 137.28 347.003C140.382 347.608 144.475 347.883 147.489 347.685C151.658 347.41 159.93 346.299 166.651 345.1C196.946 339.699 224.93 330.029 250.308 316.191C266.379 307.424 280.119 297.931 293.374 286.413C306.585 274.951 317.85 262.62 327.761 248.781C330.06 245.58 331.215 243.71 332.37 241.356C335.34 235.284 336.737 229.245 336.726 222.491C336.726 216.199 335.538 210.611 332.975 204.89C331.743 202.129 330.566 200.149 327.926 196.387C318.202 182.538 307.41 170.471 294.254 158.744C273.86 140.572 249.637 125.667 222.587 114.633C216.724 112.246 210.949 110.145 203.997 107.868C189.279 103.061 171.062 98.8919 155.651 96.8129C153.231 96.4829 149.942 96.2959 148.226 96.3839Z" fill="white"/>
</svg>
