<svg width="1059" height="1059" viewBox="0 0 1059 1059" fill="none" xmlns="http://www.w3.org/2000/svg">
<path d="M529.5 0.5625C237.404 0.5625 0.5625 237.404 0.5625 529.5C0.5625 821.596 237.404 1058.44 529.5 1058.44C821.596 1058.44 1058.44 821.596 1058.44 529.5C1058.44 237.404 821.596 0.5625 529.5 0.5625ZM783.697 399.273C784.051 404.822 784.051 410.607 784.051 416.274C784.051 589.596 652.053 789.246 410.843 789.246C336.461 789.246 267.511 767.64 209.422 730.449C220.048 731.63 230.202 732.102 241.064 732.102C302.458 732.102 358.894 711.322 403.877 676.138C346.261 674.958 297.854 637.177 281.324 585.227C301.514 588.179 319.696 588.179 340.476 582.866C310.809 576.839 284.143 560.727 265.01 537.267C245.876 513.807 235.454 484.447 235.515 454.174V452.521C252.87 462.32 273.296 468.342 294.666 469.168C276.701 457.195 261.968 440.975 251.774 421.945C241.579 402.915 236.238 381.663 236.223 360.075C236.223 335.635 242.599 313.32 254.051 293.958C286.98 334.494 328.071 367.648 374.652 391.264C421.233 414.88 472.262 428.43 524.423 431.033C505.887 341.892 572.476 269.754 652.525 269.754C690.306 269.754 724.31 285.575 748.277 311.077C777.912 305.528 806.248 294.43 831.514 279.553C821.714 309.896 801.171 335.517 773.897 351.692C800.344 348.858 825.847 341.538 849.46 331.267C831.632 357.477 809.317 380.736 783.697 399.273V399.273Z" fill="black"/>
</svg>
